<?xml version="1.0" encoding="UTF-8"?>
<!DOCTYPE svg PUBLIC "-//W3C//DTD SVG 1.1//EN" "http://www.w3.org/Graphics/SVG/1.1/DTD/svg11.dtd">
<!-- Creator: CorelDRAW 2020 (64-Bit) -->
<svg xmlns="http://www.w3.org/2000/svg" xml:space="preserve" width="50mm" height="30mm" version="1.1" style="shape-rendering:geometricPrecision; text-rendering:geometricPrecision; image-rendering:optimizeQuality; fill-rule:evenodd; clip-rule:evenodd"
viewBox="0 0 5000 3000"
 xmlns:xlink="http://www.w3.org/1999/xlink"
 xmlns:xodm="http://www.corel.com/coreldraw/odm/2003">
 <defs>
  <style type="text/css">
   <![CDATA[
    .str0 {stroke:#3F3F3F;stroke-width:7.62;stroke-miterlimit:22.9256}
    .fil0 {fill:#3F3F3F;fill-rule:nonzero}
   ]]>
  </style>
 </defs>
 <g id="Слой_x0020_1">
  <metadata id="CorelCorpID_0Corel-Layer"/>
  <g id="_1707477303072">
   <path class="fil0" d="M3203.54 549.37c0,0 159.54,-47.69 130.11,-102.55 0,0 30.68,12.49 58.87,41.13l-123.96 127.47 -65.02 -66.06 0 0.01zm-677.62 793.07c-0.28,-0.24 -0.56,-0.49 -0.85,-0.74 61.07,-67.47 289.63,-317.21 700.52,-734.64l12.12 12.31 -711.79 723.07zm157.41 403.81c134.2,39.65 274.01,17.54 274.01,17.54 -76.54,24.02 -200.22,43.31 -320.37,0 -179.98,-64.91 -347.25,-64.91 -347.25,-64.91 176.52,-17.92 261.01,8.22 393.61,47.37zm528.45 -126.73c0,0 -3.84,3.07 -10.98,7.94 -3.55,2.36 -7.91,5.29 -12.98,8.5 -5.07,3.21 -10.81,6.81 -17.28,10.34 -6.39,3.74 -13.49,7.37 -20.93,11.39 -7.57,3.78 -15.45,7.97 -23.92,11.61 -8.43,3.74 -17.14,7.65 -26.15,11.18 -4.48,1.8 -9.02,3.56 -13.57,5.4 -4.59,1.69 -9.22,3.38 -13.84,5.08 -9.27,3.28 -18.73,5.99 -27.97,8.82 -9.22,2.96 -18.52,5.01 -27.41,7.44 -8.85,2.58 -17.69,3.88 -25.95,5.57 -8.25,1.73 -16.14,2.93 -23.41,3.96 -7.28,1.05 -13.95,2.08 -19.9,2.54 -5.95,0.49 -11.15,0.88 -15.42,1.23 -8.54,0.6 -13.42,0.81 -13.42,0.81l-0.05 -0.6c0,0 4.83,-0.63 13.28,-1.76 4.21,-0.6 9.35,-1.27 15.24,-2.08 5.88,-0.85 12.46,-2.23 19.66,-3.53 7.2,-1.27 14.98,-2.72 23.12,-4.73 8.15,-1.97 16.85,-3.67 25.61,-6.24 8.8,-2.51 18,-4.69 27.12,-7.76 9.15,-2.93 18.51,-5.72 27.66,-9.14 4.61,-1.59 9.22,-3.21 13.79,-4.83 4.55,-1.73 9.07,-3.5 13.55,-5.22 8.99,-3.36 17.68,-7.17 26.13,-10.73 8.41,-3.56 16.41,-7.41 24.04,-10.9 7.53,-3.74 14.73,-7.09 21.21,-10.55 26.08,-13.44 42.45,-24.23 42.45,-24.23l0.31 0.49 0.01 0zm-1674.56 -1000.13l12.08 -12.31c124.79,126.73 232.63,237.92 324.2,333.37 -6.54,0.21 -12.96,0.53 -19.28,0.99l-317 -322.05zm-154.86 -131.42c28.24,-28.65 58.89,-41.13 58.89,-41.13 -29.44,54.85 130.09,102.55 130.09,102.55l-65 66.06 -123.98 -127.47 0 -0.01zm-86.82 -114.11c0,0 52.56,27.23 96.11,73.15l-12.06 12.24 -84.05 -85.39zm728.27 -325.68c-328.76,180.7 -537.29,341.48 -537.29,341.48 240.44,-205.6 537.29,-341.48 537.29,-341.48zm281.62 949.69c1.51,2.3 2.42,4.56 3.07,6.67 1.24,-0.42 2.47,-0.95 3.74,-1.27 2.73,-0.88 5.54,-1.48 8.29,-2.15 2.77,-0.53 5.51,-1.13 8.23,-1.45 2.69,-0.46 5.39,-0.67 7.95,-0.84 5.17,-0.39 9.99,-0.39 14.26,-0.32 2.11,0 4.18,0.14 6.03,0.11 1.73,-0.15 3.61,-0.08 5,-0.32 1.43,-0.18 2.77,-0.32 3.58,-0.57 0.92,-0.17 1.42,-0.28 1.42,-0.28l1.77 1.02c0,0 -0.73,1.56 -2.6,3.71 -0.87,1.16 -2.13,2.36 -3.59,3.67 -1.51,1.27 -3.3,2.61 -5.36,3.81 -8.23,4.94 -20.25,8.96 -32.4,11.78 -12.25,2.47 -24.61,3.88 -33.89,4.69 -9.3,0.67 -15.51,0.6 -15.51,0.6l-0.09 -2.08c0,0 0.36,-0.39 1.05,-1.06 0.68,-0.6 1.67,-1.69 2.95,-2.68 2.52,-2.19 6.12,-4.94 10.36,-7.62 4.28,-2.65 9.22,-5.19 14.47,-7.23 0,0 0.14,-0.04 0.21,-0.07 -0.83,-1.45 -1.76,-2.89 -3.06,-4.31 -3.51,-3.98 -9.25,-7.33 -15.82,-7.79 -6.62,-0.53 -13.74,2.04 -18.66,7.12 -2.45,2.51 -4.38,5.54 -5.58,8.82 -1.2,3.21 -1.64,6.81 -1.4,10.09 0.42,6.74 3.73,12.53 7.64,16.09 3.89,3.7 8.24,5.29 11.23,5.96 1.52,0.25 2.7,0.46 3.57,0.46 0.84,0.04 1.28,0.07 1.28,0.07l-0.02 0.92c-0.09,-0.11 -1.61,0.81 -5.32,1.06 -3.48,0.17 -9,-0.46 -14.47,-4.27 -5.5,-3.57 -10.8,-10.66 -12,-19.62 -0.1,-1.2 -0.32,-2.04 -0.28,-3.6 0.01,-0.98 -0.12,-1.48 0.03,-2.96 0.18,-2.75 0.6,-4.97 1.42,-7.23 1.51,-4.59 4.05,-8.86 7.4,-12.38 3.5,-3.42 7.71,-6 12.19,-7.55 4.4,-1.63 9.45,-1.73 13.37,-1.17 4.66,0.53 8.6,2.3 11.86,4.48 3.32,2.16 5.85,4.94 7.68,7.69zm82.99 152.31c-0.08,-0.07 -0.72,1.52 -2.58,3.71 -0.88,1.13 -2.16,2.33 -3.62,3.63 -1.49,1.31 -3.27,2.61 -5.33,3.85 -8.26,4.94 -20.26,8.92 -32.43,11.74 -12.24,2.51 -24.6,3.88 -33.87,4.7 -9.29,0.67 -15.53,0.6 -15.53,0.6l-0.08 -2.09c0,0 0.35,-0.35 1.04,-1.05 0.69,-0.6 1.67,-1.7 2.95,-2.68 2.54,-2.19 6.13,-4.91 10.39,-7.59 4.26,-2.68 9.19,-5.19 14.46,-7.23l0.01 -0.04c-0.28,-0.31 -0.48,-0.67 -0.8,-1.02 -3.51,-3.95 -9.24,-7.34 -15.81,-7.76 -6.61,-0.57 -13.75,2.05 -18.65,7.13 -2.47,2.46 -4.4,5.53 -5.59,8.81 -1.18,3.21 -1.65,6.81 -1.4,10.09 0.43,6.71 3.74,12.53 7.65,16.09 3.88,3.67 8.23,5.29 11.23,5.96 1.5,0.25 2.7,0.43 3.55,0.43 0.86,0.07 1.31,0.1 1.31,0.1l-0.04 0.92c-0.1,-0.11 -1.62,0.81 -5.33,1.06 -3.46,0.14 -8.97,-0.5 -14.47,-4.27 -5.48,-3.56 -10.82,-10.66 -12,-19.65 -0.08,-1.17 -0.32,-2.01 -0.28,-3.56 0.02,-1.03 -0.12,-1.49 0.04,-2.97 0.17,-2.75 0.6,-4.97 1.41,-7.26 1.52,-4.56 4.05,-8.86 7.41,-12.39 3.49,-3.38 7.7,-5.96 12.2,-7.51 4.38,-1.62 9.45,-1.73 13.37,-1.2 4.64,0.56 8.58,2.33 11.86,4.51 3.32,2.12 5.83,4.94 7.66,7.7 0.69,1.02 1.17,2.04 1.66,3.1 1.03,-0.39 2.04,-0.81 3.08,-1.09 2.74,-0.89 5.53,-1.49 8.28,-2.16 2.79,-0.52 5.53,-1.09 8.23,-1.44 2.72,-0.43 5.4,-0.67 7.97,-0.85 5.15,-0.39 9.97,-0.35 14.26,-0.28 2.11,0 4.19,0.1 6.02,0.07 1.75,-0.11 3.62,-0.07 5,-0.28 1.44,-0.21 2.76,-0.32 3.57,-0.57 0.95,-0.21 1.42,-0.31 1.42,-0.31l1.78 1.05zm-624.42 16.94c68.08,27.41 89.81,129.23 21.77,261.73 -32.75,63.74 -55.99,165.01 -55.99,165.01 8.5,-80.67 10.62,-108.05 43.96,-187.98 32.43,-77.74 -9.74,-238.76 -9.74,-238.76zm470.94 482.1c36.01,-3.56 60.06,-5.29 60.06,-5.29l0.05 0.6c0,0 -5.98,0.92 -16.47,2.26 -10.47,1.27 -25.36,3.63 -43.32,5.86 -17.96,2.18 -38.86,5.29 -61.34,7.69 -22.51,2.47 -46.5,5.04 -70.58,7.23 -12.03,0.92 -24.08,1.69 -35.98,2.43 -11.86,0.74 -23.58,1.24 -34.89,1.8 -11.34,0.39 -22.29,0.67 -32.7,0.57 -10.4,0 -20.22,-0.04 -29.3,-0.32 -4.53,-0.14 -8.87,-0.18 -13.01,-0.39 -4.13,-0.28 -8.04,-0.53 -11.72,-0.81 -7.36,-0.46 -13.77,-0.88 -19.04,-1.48 -10.52,-1.06 -16.52,-1.84 -16.52,-1.84l0.03 -0.56c0,0 6.04,0.32 16.57,0.85 5.26,0.35 11.65,0.49 19.01,0.63 7.33,0.18 15.63,0.28 24.68,0.18 36.16,-0.07 84.34,-2.61 132.4,-6.81 48.05,-3.92 96.04,-9.1 132.05,-12.6l0.02 0zm261.43 -298.72c0.19,0.28 0.28,0.53 0.45,0.81 0,0 0.1,-0.04 0.14,-0.04 1.75,-0.46 3.24,-0.95 4.91,-1.23 1.72,-0.28 3.02,-0.67 4.68,-0.85 1.6,-0.25 3.1,-0.49 4.5,-0.7 1.52,-0.22 2.81,-0.5 4.27,-0.78 1.39,-0.32 2.62,-0.67 3.68,-1.06 2.44,-0.81 3.83,-1.3 3.83,-1.3l1.58 0.6c0,0 -0.44,1.05 -1.24,2.89 -0.41,0.95 -0.82,2.11 -1.69,3.21 -0.83,1.13 -1.59,2.61 -2.81,3.81 -1.26,1.13 -2.47,2.61 -4.03,3.77 -1.6,1.13 -3.12,2.58 -4.97,3.57 -2.92,1.83 -6.15,3.45 -9.48,4.86 -0.1,0.43 -0.18,0.89 -0.27,1.2 -0.24,0.89 -0.35,1.34 -0.35,1.34l-0.93 0c0,0 -0.03,-0.45 -0.08,-1.27 0,-0.14 -0.06,-0.38 -0.06,-0.52 -0.21,0.1 -0.41,0.21 -0.63,0.31 -4.19,1.56 -8.49,2.68 -12.52,3.67 -4.06,0.92 -7.86,1.62 -11.16,2.08 -6.55,0.92 -10.99,0.92 -10.99,0.92l-0.12 -1.73c0,0 0.99,-1.34 2.67,-3.17 1.67,-1.87 4.02,-4.2 6.77,-6.6 2.75,-2.29 5.89,-4.55 9.23,-6.49 1.62,-0.99 3.36,-1.87 5.04,-2.65 1.43,-0.77 2.94,-1.27 4.37,-1.9 -3.56,-3.49 -8.74,-6.35 -14.72,-6.74 -6.6,-0.56 -13.72,2.05 -18.63,7.13 -2.46,2.5 -4.39,5.53 -5.58,8.82 -1.21,3.21 -1.67,6.77 -1.43,10.08 0.43,6.71 3.74,12.53 7.65,16.09 3.91,3.67 8.25,5.29 11.24,5.93 1.5,0.28 2.7,0.49 3.57,0.49 0.84,0.04 1.29,0.07 1.29,0.07l-0.04 0.92c-0.09,-0.11 -1.64,0.78 -5.33,1.06 -3.44,0.17 -8.98,-0.5 -14.47,-4.27 -5.5,-3.56 -10.8,-10.65 -11.99,-19.65 -0.11,-1.2 -0.31,-2.01 -0.28,-3.56 0.02,-0.99 -0.15,-1.48 0.03,-3 0.18,-2.72 0.58,-4.94 1.42,-7.23 1.5,-4.55 4.04,-8.86 7.4,-12.39 3.49,-3.38 7.71,-5.96 12.2,-7.51 4.39,-1.62 9.45,-1.73 13.36,-1.2 4.64,0.53 8.61,2.33 11.87,4.52 3.34,2.11 5.84,4.9 7.65,7.69zm-745.12 -303.91c0.21,-2.22 0.47,-4.97 1.13,-8.04 0.62,-3.07 1.38,-6.56 2.7,-10.16 1.09,-3.78 2.8,-7.59 4.68,-11.64 2.13,-3.85 4.1,-8.22 7.06,-12.07 2.8,-4.02 5.67,-8.22 9.35,-11.78 3.36,-3.92 7.41,-7.2 11.27,-10.72 4.05,-3.25 8.56,-5.9 12.76,-8.79 4.38,-2.57 9.04,-4.44 13.36,-6.56 4.43,-1.76 8.95,-2.96 13.1,-4.23 4.13,-1.38 8.34,-1.63 12.04,-2.23 3.72,-0.56 7.13,-1.02 10.21,-0.88 3.06,-0.03 5.74,0.14 7.93,0.25 4.35,0.25 6.82,0.6 6.82,0.6l0.18 1.13c0,0 -2.35,0.49 -6.44,1.34 -2.05,0.42 -4.52,0.95 -7.37,1.55 -2.86,0.46 -5.97,1.59 -9.38,2.65 -3.38,1.16 -7.21,2.01 -10.94,3.74 -3.74,1.65 -7.74,3.28 -11.79,5.18 -3.87,2.26 -7.95,4.45 -11.95,6.88 -3.77,2.79 -7.85,5.29 -11.49,8.4 -3.59,3.14 -7.44,5.99 -10.61,9.52 -1.64,1.7 -3.32,3.32 -4.89,5.01 -1.46,1.77 -2.92,3.53 -4.36,5.26 -2.96,3.42 -5.23,7.12 -7.64,10.48 -2.08,3.59 -4.26,6.84 -5.8,10.08 -6.78,12.85 -8.91,22.37 -8.91,22.37l-1.07 -0.28c0,0 -0.07,-0.6 -0.1,-1.8 -0.01,-1.24 -0.05,-3.03 0.15,-5.26zm491.15 626.83c-13.51,1.45 -27.08,3.11 -40.7,4.94 -13.65,1.7 -27.32,3.71 -40.95,5.61 -27.32,3.81 -54.53,8.4 -81.6,11.36 -13.49,1.98 -26.99,2.44 -40.28,3.32 -13.3,1.2 -26.47,0.84 -39.41,0.99 -25.9,0 -50.91,-1.87 -74.49,-4.59 -11.82,-1.2 -23.18,-3.46 -34.23,-5.05 -11,-1.94 -21.55,-4.33 -31.71,-6.35 -10.03,-2.64 -19.71,-4.86 -28.8,-7.44 -9.03,-2.82 -17.72,-5.08 -25.67,-7.94 -15.98,-5.36 -29.73,-10.61 -40.82,-15.45 -11.17,-4.72 -19.7,-8.99 -25.49,-11.96 -5.77,-3 -8.76,-4.76 -8.76,-4.76l0.57 -0.99c0,0 3.06,1.59 8.95,4.24 5.91,2.68 14.66,6.35 25.92,10.58 11.22,4.37 25.08,9 41.13,13.69 7.99,2.5 16.71,4.37 25.74,6.81 9.12,2.04 18.71,4.26 28.7,6.52 10.12,1.77 20.61,3.85 31.52,5.51 10.98,1.27 22.23,3.17 33.93,4.09 23.35,2.04 48.05,3.14 73.56,3.07 12.76,-0.25 25.74,-0.04 38.83,-1.31 13.09,-1.02 26.38,-1.55 39.64,-3.67 26.47,-3.14 53.83,-8.08 81.18,-12.06 13.74,-1.8 27.47,-3.67 41.17,-5.26 13.67,-1.73 27.35,-3.24 40.92,-4.62 27.15,-2.89 53.98,-4.9 80.01,-6.24 26.03,-1.34 51.29,-1.17 75.19,-0.04 11.95,0.42 23.55,1.41 34.77,2.22 11.2,1.24 22.03,1.98 32.35,3.46 20.7,2.5 39.5,5.89 56.06,9.24 16.57,3.28 30.9,6.64 42.69,9.39 11.82,2.64 20.94,5.39 27.24,6.98 6.27,1.66 9.61,2.54 9.61,2.54l-0.24 1.13c0,0 -3.37,-0.7 -9.71,-2.01 -6.36,-1.27 -15.6,-3.39 -27.47,-5.61 -11.86,-2.26 -26.26,-5.01 -42.87,-7.58 -16.59,-2.65 -35.39,-5.22 -55.98,-7.27 -10.27,-1.2 -21.03,-1.69 -32.15,-2.65 -11.12,-0.49 -22.63,-1.16 -34.48,-1.34 -23.69,-0.49 -48.66,0.11 -74.47,1.52 -25.8,1.59 -52.43,3.81 -79.39,6.98l-0.01 0zm508.7 -1625.23c0,0 296.86,135.87 537.31,341.48 0,0 -208.55,-160.78 -537.31,-341.48zm728.25 325.68l-84.02 85.39 -12.08 -12.24c43.55,-45.92 96.1,-73.15 96.1,-73.15zm-139.63 349.17c47.43,3.32 29.04,-132.52 168.06,8.71 139.04,141.24 284.18,394.25 284.18,394.25l87.52 88.89c-97.78,-280.03 -317.71,-564.55 -413.22,-680.06 15.11,-14.96 29.7,-29.49 43.62,-43.35 31.39,-31.25 44.54,-69.7 29.21,-85.33l-22.37 -22.68 -22.37 -22.72c-15.36,-15.63 -53.21,-2.26 -83.98,29.67 -13.65,14.15 -27.93,28.96 -42.65,44.26 -113.71,-97 -393.78,-320.42 -669.43,-419.75l87.5 88.89c0,0 249.04,147.47 388.07,288.71 139.02,141.23 5.32,122.53 8.58,170.76l31.5 31.96c-206.55,216.29 -464.79,488.71 -699.93,736.47 -80.79,-75.48 -141.54,-182.05 -141.54,-288.74 0,-233.97 -217.41,-98.59 -342.17,-98.59 -44.14,0 -94.44,-4.41 -141.01,-4.2 -115.89,-122.01 -228.18,-240.07 -328.3,-344.94l31.49 -31.96c3.27,-48.22 -130.46,-29.53 8.57,-170.76 139.04,-141.24 388.06,-288.71 388.06,-288.71l87.51 -88.89c-275.65,99.33 -555.72,322.75 -669.42,419.75 -14.73,-15.31 -29.02,-30.12 -42.65,-44.26 -30.76,-31.93 -68.63,-45.29 -84,-29.67l-22.36 22.72 -22.34 22.68c-15.36,15.63 -2.21,54.08 29.19,85.33 13.93,13.87 28.52,28.4 43.6,43.35 -95.5,115.52 -315.43,400.03 -413.21,680.06l87.51 -88.89c0,0 145.16,-253.01 284.18,-394.25 139.04,-141.23 120.63,-5.39 168.08,-8.71l31.48 -32c88.81,87.52 187.22,184.17 289.46,284.44 -15.39,15.35 -24.47,37.01 -24.47,67.48 0,133.93 52.91,291.67 18.89,363.66 -34.01,72 -53.86,197.28 -53.86,341.31 0,54.5 13.01,90.41 37.71,114.01 -16.33,38.31 -32.73,136.61 -32.73,136.61l69.4 -113.13c10.46,4.45 21.96,7.98 34.49,10.76l0 102.44c0,0 35.53,-66.77 51.49,-95.06 23.82,1.97 50.11,2.64 78.66,2.75 4.81,4.66 9.92,10.02 15.13,15.7 -14.29,14.71 -27.05,27.83 -38.05,38.98 -166.47,169.14 -306.11,296.89 -368.97,353.2 -18.85,16.89 -27.71,39.74 -18.87,48.74l21.64 21.98 21.64 21.94c8.83,9 31.33,0 47.94,-19.16 55.41,-63.84 181.21,-205.71 347.7,-374.84 9.86,-10.02 21.3,-21.56 33.99,-34.29 9.21,11.85 15.24,20 15.24,20l12.73 -47.97c16.27,-16.23 34.15,-34.01 53.45,-53.12 75.05,-11.29 118.3,-32.35 122.09,-57.35 5.66,-37.43 164.43,-48.95 182.86,-11.53 15.79,32.06 77.4,37.71 262.04,38.7l19.9 131.28c0,0 9.32,-58.9 17.65,-112.84 53.75,53.26 97.3,96.68 127.26,127.12 166.49,169.13 292.24,311 347.68,374.84 16.62,19.16 39.14,28.16 47.96,19.16l21.62 -21.94 21.62 -21.98c8.85,-9 0,-31.86 -18.85,-48.74 -62.86,-56.3 -202.5,-184.06 -368.98,-353.2 -23.21,-23.6 -54.09,-55.41 -91.21,-93.97 35.13,-1.06 69.37,-4.48 102.36,-9.7 31.44,60.52 65.3,141.23 65.3,141.23 14.62,-34.01 18.16,-106.6 18.7,-158.7 22.12,-5.67 43.33,-11.92 63.52,-18.59 26.02,49.31 42.57,121.62 42.57,121.62l23.27 -85.54 194.14 141.2 -121.11 -234.04c16.05,-7.9 30.02,-15.24 41.5,-21.59l165.47 25.82 -132.81 -68.39c1.85,-7.94 2.48,-16.37 1.47,-24.83 -40.84,-341.21 -327.83,-221.98 -511.78,-238.73 0.07,0.45 0.14,0.84 0.23,1.44 0.17,0.99 0.45,2.22 0.32,3.64 -0.08,1.41 0.06,3.03 -0.32,4.72 -0.42,1.66 -0.65,3.57 -1.31,5.44 -0.72,1.79 -1.24,3.88 -2.25,5.71 -1.67,3.6 -3.75,7.23 -6.12,10.65 1.17,3.43 1.49,6.6 1.39,8.86 -0.09,1.8 -0.41,3.17 -0.65,4.06 -0.24,0.91 -0.37,1.37 -0.37,1.37l-0.91 0c0,0 -0.04,-0.42 -0.08,-1.3 0,-0.85 -0.19,-2.05 -0.45,-3.6 -0.35,-1.59 -0.96,-3.56 -1.95,-5.61 -1.99,2.43 -4.02,4.94 -6.05,7.13 -2.9,3.03 -5.69,5.75 -8.2,7.93 -5,4.41 -8.71,6.92 -8.71,6.92l-1.03 -1.38c0,0 0.12,-1.69 0.51,-4.16 0.4,-2.47 1.1,-5.75 2.12,-9.24 1.06,-3.46 2.47,-7.13 4.22,-10.59 0.83,-1.73 1.8,-3.45 2.8,-5.04 0.63,-1.17 1.38,-2.19 2.11,-3.21 -2.3,-1.03 -4.8,-1.77 -7.49,-1.94 -6.6,-0.53 -13.72,2.01 -18.64,7.09 -2.48,2.5 -4.41,5.57 -5.58,8.82 -1.2,3.24 -1.66,6.81 -1.42,10.12 0.43,6.74 3.75,12.53 7.65,16.09 3.9,3.7 8.24,5.29 11.21,5.96 1.53,0.25 2.73,0.42 3.6,0.42 0.84,0.07 1.28,0.11 1.28,0.11l-0.04 0.92c-0.1,-0.11 -1.63,0.81 -5.33,1.02 -3.45,0.18 -8.97,-0.46 -14.47,-4.23 -5.49,-3.57 -10.79,-10.66 -11.99,-19.65 -0.1,-1.2 -0.3,-2.01 -0.27,-3.57 0.02,-0.98 -0.13,-1.48 0.02,-2.96 0.18,-2.75 0.59,-4.97 1.42,-7.27 1.51,-4.55 4.05,-8.85 7.4,-12.38 3.49,-3.39 7.72,-5.96 12.19,-7.51 4.41,-1.63 9.46,-1.73 13.39,-1.2 4.49,0.53 8.29,2.26 11.52,4.3 1.13,-1.27 2.12,-2.47 3.29,-3.6 1.31,-1.2 2.16,-2.22 3.47,-3.31 1.22,-1.1 2.35,-2.12 3.38,-3.11 1.17,-1.02 2.1,-1.97 3.16,-3 1.02,-1.02 1.81,-2.01 2.52,-2.92 0.73,-0.96 1.27,-1.66 1.69,-2.19 -15.13,-1.52 -29.58,-3.95 -43.08,-7.69 -22.43,-6.25 -45.16,-15.59 -67.58,-27.59 -0.04,0.53 -0.07,1.27 -0.12,2.26 -0.08,1.02 -0.06,2.26 -0.5,3.6 -0.39,1.34 -0.61,3 -1.35,4.55 -0.78,1.55 -1.41,3.31 -2.46,4.97 -1.1,1.62 -2.05,3.49 -3.44,5.12 -0.95,1.2 -2,2.4 -3.06,3.56 1.13,3.39 1.43,6.46 1.32,8.68 -0.09,1.8 -0.38,3.14 -0.64,4.06 -0.23,0.88 -0.35,1.37 -0.35,1.37l-0.94 0c0,0 -0.03,-0.46 -0.05,-1.3 0,-0.85 -0.19,-2.09 -0.47,-3.64 -0.34,-1.62 -1,-3.63 -2.05,-5.78 -0.91,0.91 -1.84,1.87 -2.81,2.71 -3.38,2.97 -7.03,5.54 -10.48,7.91 -3.48,2.29 -6.82,4.3 -9.73,5.89 -5.85,3.17 -10,4.76 -10,4.76l-0.72 -1.59c0,0 0.5,-1.62 1.42,-3.91 0.92,-2.33 2.33,-5.37 4.11,-8.58 1.79,-3.14 3.94,-6.38 6.42,-9.34 1.17,-1.52 2.51,-2.93 3.82,-4.27 1.26,-1.45 2.77,-2.61 4.04,-3.88 0.55,-0.46 1.03,-0.85 1.54,-1.27 -2.23,-0.92 -4.63,-1.66 -7.22,-1.84 -6.62,-0.53 -13.74,2.05 -18.65,7.13 -2.46,2.5 -4.39,5.54 -5.58,8.82 -1.2,3.24 -1.65,6.81 -1.42,10.09 0.42,6.73 3.74,12.52 7.65,16.12 3.9,3.67 8.24,5.25 11.23,5.93 1.52,0.24 2.72,0.45 3.57,0.45 0.84,0.04 1.31,0.07 1.31,0.07l-0.06 0.96c-0.08,-0.11 -1.61,0.77 -5.31,1.02 -3.46,0.18 -8.99,-0.46 -14.47,-4.27 -5.51,-3.56 -10.82,-10.65 -12.01,-19.61 -0.09,-1.24 -0.31,-2.05 -0.27,-3.6 0.01,-0.99 -0.13,-1.45 0.02,-2.96 0.18,-2.76 0.61,-4.98 1.43,-7.27 1.51,-4.52 4.03,-8.82 7.39,-12.38 3.51,-3.39 7.72,-5.97 12.2,-7.52 4.4,-1.62 9.45,-1.73 13.37,-1.16 4.66,0.49 8.6,2.29 11.88,4.48 0.44,0.28 0.76,0.63 1.17,0.95 0.18,-0.11 0.37,-0.28 0.56,-0.39 1.53,-0.88 2.59,-1.69 4.12,-2.47 1.41,-0.77 2.73,-1.51 3.97,-2.22 1.35,-0.74 2.45,-1.48 3.72,-2.26 1.23,-0.77 2.23,-1.51 3.09,-2.26 1.95,-1.62 3.09,-2.54 3.11,-2.57 -4.93,-2.68 -9.85,-5.5 -14.75,-8.43 241.08,-236.16 504.68,-494.04 714.6,-700.92l31.48 32 -0.04 0.02z"/>
   <path class="fil0" d="M2447.2 2352.67c123.82,-32.88 148.5,0 148.5,0 -23.91,-7.76 -148.5,0 -148.5,0zm141.21 49.59c-0.19,3.24 -0.63,6.6 -1.33,10.05 -0.68,3.46 -1.5,6.99 -2.58,10.55 -0.47,1.77 -1.07,3.53 -1.71,5.29 -0.62,1.84 -1.21,3.5 -1.9,5.22 -1.35,3.46 -2.47,6.81 -3.51,10.27 -1.05,3.39 -1.92,6.84 -2.7,10.16 -0.72,3.32 -1.51,6.56 -2.08,9.67 -0.57,3.07 -1.05,6.03 -1.44,8.74 -0.34,2.72 -0.67,5.26 -0.95,7.45 -0.23,2.26 -0.43,4.16 -0.55,5.78 -0.24,3.25 -0.3,5.08 -0.3,5.08l-0.25 0c0,0 -0.4,-7.4 0.69,-18.45 0.55,-5.5 1.47,-11.96 2.92,-18.69 1.43,-6.78 3.45,-13.94 6.02,-20.85 1.22,-3.5 2.63,-6.85 3.64,-10.37 1.1,-3.43 1.96,-6.92 2.66,-10.31 1.42,-6.73 2.07,-13.19 2.25,-18.69 0.15,-5.54 -0.16,-10.16 -0.54,-13.37 -0.36,-3.21 -0.77,-5.01 -0.77,-5.01l0.22 -0.04c0,0 0.6,1.77 1.21,4.98 0.54,3.21 1.31,7.86 1.31,13.47 0.03,2.79 -0.05,5.86 -0.31,9.07zm-43.01 141.58c-8.21,2.4 -13.31,14.71 -13.31,14.71 -15.68,-15.48 -152.05,-25.85 -152.05,-25.85 -12.52,-10.34 -10.58,-42.19 -10.58,-42.19 0,0 50.95,-43.8 69.36,-59.32 9.62,-8.08 27.37,-27.84 42.13,-44.8 36.34,-0.38 65.27,-4.16 89.52,-8.18 0.26,19.44 -4.81,42.78 -9.41,56.19 -5.87,17.11 -15.67,109.45 -15.67,109.45l0.01 -0.01zm-61.98 71.47c-28.01,1.2 -70.91,-25.47 -69.34,-29.04 1.57,-3.6 -5.69,-10.58 -5.69,-10.58 0,0 82.49,0.78 91.49,2.58 9.01,1.79 35.67,30.65 35.67,30.65 0,0 -24.11,5.19 -52.12,6.39l-0.01 0zm-120.08 -180.53c-5.45,13.29 0,85.18 0,85.18 -11.17,-21.69 -13.44,-57.77 -11.17,-77.14 1.57,-13.3 17.06,-22.4 11.17,-8.04zm-18.42 36.44c0,0 -19.59,29.24 -24.5,31.82 0,0 19.21,-41.37 28.43,-76.62 0,0 -5.9,26.67 -3.93,44.8zm-95.01 74.21c-4.17,-6.63 1.95,-25.47 1.95,-25.47 0,0 -3.12,27.87 88.57,51.74 1.93,0.5 -86.38,-19.61 -90.52,-26.28l0 0.01zm-14.83 -63.66c-4.73,-13.48 -22.65,-38.78 -30.07,-54.18 21.68,1.09 48.88,0.85 82.7,-1.77 7.67,-0.6 14.87,-1.3 21.76,-2.11 -2.85,18.62 -6.06,35.56 -9.34,45.28 -10.59,31.47 -23.13,43.42 -23.13,43.42 -6.27,-6.81 -20.38,-6 -27.82,-7.97 -7.44,-1.98 -8.23,-6 -14.11,-22.68l0.01 0.01zm-52.44 -55.8c3.86,0.35 7.99,0.74 12.35,1.05 1.88,4.17 3.76,7.91 5.22,10.94 7.06,14.71 10.98,38.63 10.98,38.63 -13.46,-10.13 -22.58,-31.01 -28.55,-50.61l0 -0.01zm20.26 11c0,0 -20.43,-36.58 5.04,-48.71 0,0 -14.91,27.2 -5.04,48.71zm-70.2 -47.05c0,0 16.16,-20.92 64.35,-31.04 48.2,-10.16 161.34,-4.8 161.34,-4.8 0,0 -62.58,5.08 -122.55,7.76 -59.94,2.68 -103.14,28.08 -103.14,28.08zm30.21 16.83c-3.51,11.64 0,36.09 0,36.09 -4.69,-9.84 -10.52,-37.71 -9.1,-47.48 2.2,-14.95 12.63,-0.24 9.1,11.4l0 -0.01zm53.09 -58.3c3.49,-0.53 8.46,-1.45 14.46,-2.12 6.02,-0.71 13.02,-1.59 20.57,-2.08 7.54,-0.5 15.6,-0.92 23.66,-1.17 4.05,0 8.09,-0.07 12.06,0.04 3.97,0.07 7.87,0.1 11.67,0.28 3.79,0.11 7.44,0.35 10.89,0.64 3.46,0.35 6.72,0.56 9.74,0.95 6.02,0.6 11,1.48 14.47,2.08 3.5,0.63 5.46,1.06 5.46,1.06l-0.03 0.17c0,0 -2,-0.17 -5.5,-0.6 -3.47,-0.45 -8.49,-0.91 -14.49,-1.3 -3.01,-0.28 -6.27,-0.35 -9.72,-0.57 -3.47,-0.21 -7.11,-0.28 -10.87,-0.38 -3.78,-0.14 -7.68,-0.11 -11.62,-0.14 -3.95,-0.04 -7.98,0.1 -12,0.14 -8.05,0.14 -16.07,0.46 -23.61,0.88 -7.52,0.42 -14.55,0.88 -20.56,1.41 -12.01,0.99 -19.99,1.98 -19.99,1.98l-0.05 -0.22c0,0 1.99,-0.42 5.46,-1.05zm169.48 81.37c-1.82,1.48 -2.94,2.36 -2.94,2.36l0.54 -1.44c0.97,-3.11 4.04,-12.35 7.98,-24.1 14.43,-4.48 26.65,-8.89 38.35,-12.48 -16.56,16.65 -36.78,30.83 -43.92,35.66l-0.01 0zm59.56 -22.51c2.36,-9.52 39.39,-31.64 23.51,-14.71 0,0 -29.38,32.25 -42.31,42.19 0,0 16.47,-17.93 18.81,-27.49l-0.01 0.01zm-39.96 -299.92c90.52,25.08 129.18,73.05 149.76,101.69 20.56,28.68 -53.49,34.05 -60.55,16.12 -7.04,-17.92 -29.5,-53.33 -68.05,-82.61 -26.74,-20.28 -78.75,-36.19 -202.9,9.18 0,0 91.23,-69.46 181.75,-44.37l-0.01 -0.01zm171.43 453.93c0,0 0.38,0.46 0.9,1.3 0.53,0.81 1.31,1.98 2.05,3.49 0.79,1.49 1.56,3.29 2.26,5.26 0.74,1.94 1.3,4.13 1.81,6.28 0.41,2.22 0.8,4.41 0.91,6.56 0.16,2.12 0.11,4.09 -0.04,5.79 -0.15,1.69 -0.48,3.07 -0.69,4.02 -0.25,0.99 -0.42,1.52 -0.42,1.52l-0.24 0c0,0 0,-0.53 0.03,-1.52 0.02,-0.95 0,-2.29 -0.1,-3.95 -0.18,-3.28 -0.79,-7.62 -1.74,-11.89 -0.89,-4.27 -2.09,-8.47 -3.11,-11.61 -1.02,-3.14 -1.83,-5.15 -1.83,-5.15l0.21 -0.1zm43.29 -202.57c0.39,-11.96 -10.19,-11.12 -12.54,-32.25 -2.34,-21.06 -33.9,-146.06 -109.72,-190.87 -75.83,-44.75 -175.16,-65.07 -263.92,-5.36 -88.75,59.68 -85.99,180.92 -99.93,199.43 -13.91,18.52 -11.16,81.2 -2.93,84.77 2.89,1.3 9.88,4.12 22.38,6.87 13.59,71.4 94.85,94.64 94.85,94.64 0,8.4 -3.51,31.86 -3.51,31.86 0,0 56.02,25.86 81.5,29.85 25.48,4.02 39.58,23.49 94.44,54.17 54.85,30.66 128.91,1.17 128.91,1.17 9.4,5.99 29.78,-11.54 37.62,-31.86 7.84,-20.28 -11.37,-48.14 -11.37,-48.14 0,0 -0.77,-35.46 -2.34,-60.11 -1.57,-24.69 16.45,-69.27 19.21,-94.36 0.58,-5.39 -0.24,-13.89 -1.83,-23.88 1.37,-0.25 2.75,-0.53 4.1,-0.77 0,0 24.68,-3.21 25.08,-15.17l0 0.01z"/>
   <polygon class="fil0" points="3399.11,1830.55 4771.29,1764.94 3399.08,1764.94 "/>
   <polygon class="fil0" points="1522.13,1764.94 -2.58,1764.94 1522.13,1834.25 "/>
   <path class="fil0" d="M3185.63 2577.75c-10.25,8.11 -24.97,20.49 -44.79,34.5 -19.35,14.6 -43.94,31.01 -72.41,49.27 -14.58,8.61 -29.76,18.35 -46.33,27.59 -8.32,4.55 -16.84,9.24 -25.58,14.07 -8.68,4.91 -17.63,9.74 -27.04,14.22 -18.65,9.28 -37.96,19.16 -58.66,27.87 -10.29,4.45 -20.6,9.42 -31.39,13.62 -10.79,4.23 -21.75,8.5 -32.85,12.87 -11.03,4.55 -22.54,8.29 -34.11,12.25 -11.63,3.84 -23.22,8.21 -35.25,11.74 -24.04,7.02 -48.47,14.61 -73.86,20.36 -25.14,6.74 -51.2,11.32 -77.43,16.68 -13.17,2.3 -26.53,4.17 -39.89,6.28 -6.68,1.03 -13.39,2.01 -20.11,3l-20.33 2.22c-54.19,6.67 -109.88,8.72 -165.15,8.05l-41.8 -0.85c-13.8,-0.88 -27.56,-1.8 -41.32,-2.68l-20.6 -1.45 -20.51 -2.36c-13.65,-1.62 -27.32,-2.86 -40.8,-4.83 -26.96,-4.41 -53.81,-8.15 -79.92,-14.15 -26.33,-4.94 -51.84,-11.89 -77.05,-18.31 -50,-14.25 -97.93,-29.91 -141.85,-48.5 -44.35,-17.67 -84.66,-38.1 -121.45,-57.49 -18.19,-10.12 -35.34,-20.35 -51.81,-29.77 -16.04,-10.2 -31.25,-19.79 -45.53,-28.89 -13.88,-9.71 -26.86,-18.77 -38.86,-27.2 -12.03,-8.36 -22.39,-16.97 -32.12,-24.28 -19.54,-14.49 -33.68,-27.37 -43.73,-35.66 -9.97,-8.43 -15.27,-12.91 -15.27,-12.91l-4.78 5.29c0,0 4.5,5.5 12.97,15.77 8.81,9.88 20.74,25.68 38.56,43.03 8.81,8.78 18.2,19.08 29.22,29.35 10.9,10.41 23.26,21.06 36.31,32.74 13.6,11.07 28.07,22.79 43.33,35.17 15.76,11.71 32.8,23.46 50.65,35.77 9.15,5.79 18.46,11.75 27.97,17.78 9.51,6.1 19.21,12.35 29.45,18.03 20.28,11.71 41.66,23.14 64.25,33.76 44.69,22.26 93.7,42.29 145.72,59.25 13.12,3.99 26.32,7.98 39.61,12 13.3,4.2 27.05,6.88 40.69,10.41 27.31,7.26 55.46,12.13 83.82,17.21 14.21,2.4 28.57,4.02 42.93,6.07l21.62 2.89c7.32,0.78 14.82,1.17 22.23,1.8 14.87,1.06 29.75,2.12 44.63,3.25l41.79 1.23 10.45 0.21 5.25 0.07 2.78 0.04 1.38 -0.04 2.75 -0.07 21.92 -0.63c14.61,-0.57 29.23,-0.46 43.76,-1.66 14.53,-1.02 29.06,-2.05 43.49,-3.35 14.43,-1.31 28.75,-3.56 43.03,-5.33 57.09,-7.44 112.67,-19.47 165.11,-35.06 26.33,-7.45 51.8,-16.09 76.43,-25.3 12.33,-4.51 24.24,-9.84 36.13,-14.64 11.82,-4.94 23.58,-9.59 34.82,-15.1 45.66,-20.14 86.81,-43.31 123.41,-66.42 9.32,-5.5 18.15,-11.36 26.7,-17.21 8.55,-5.82 17.01,-11.29 24.97,-17.08 15.92,-11.53 30.44,-23.39 44.27,-33.97 27.19,-21.98 49.62,-42.43 67.42,-60.28 18.43,-17.04 30.55,-32.1 39.57,-41.79 8.69,-10.06 13.35,-15.38 13.35,-15.38l-4.52 -5.54c0,0 -5.44,4.34 -15.65,12.49l0.01 -0.02z"/>
   <path class="fil0" d="M3020.27 2773.9c-8.32,5.85 -20.38,14.71 -36.43,24.76 -15.77,10.51 -35.63,22.23 -58.64,35.14 -23.2,12.66 -49.73,26.24 -79.52,39.26 -7.44,3.25 -15.06,6.56 -22.81,9.95 -7.88,3.07 -15.9,6.17 -24.07,9.38 -16.22,6.64 -33.49,12.17 -51.06,18.28 -35.5,11.22 -73.26,22.19 -113.09,30.2 -19.8,4.65 -40.25,7.58 -60.8,11.35 -20.74,2.62 -41.62,6.07 -62.9,7.7 -42.38,4.51 -85.81,5.89 -129.03,5.5 -43.54,0.03 -86.49,-3.6 -128.96,-8.12 -42.25,-5.6 -83.73,-12.38 -123.2,-22.01 -9.96,-2.04 -19.63,-4.83 -29.28,-7.41 -9.62,-2.64 -19.22,-4.97 -28.58,-7.83 -18.6,-5.96 -37.03,-11.15 -54.44,-17.74 -8.76,-3.18 -17.41,-6.28 -25.92,-9.35 -8.38,-3.42 -16.63,-6.78 -24.76,-10.06 -16.36,-6.28 -31.55,-13.82 -46.39,-20.42 -14.79,-6.78 -28.46,-14.25 -41.73,-20.82 -13.06,-6.98 -25.2,-14.07 -36.75,-20.46 -22.63,-13.65 -42.2,-25.78 -57.69,-36.76 -15.82,-10.44 -27.55,-19.68 -35.71,-25.75 -8.13,-6.1 -12.47,-9.31 -12.47,-9.31l-2.11 2.64c0,0 4.03,3.71 11.57,10.66 7.64,6.81 18.27,17.67 33.55,29.28 14.81,12.24 33.64,26.03 55.57,41.58 11.19,7.41 23.01,15.56 35.77,23.64 12.96,7.72 26.64,15.87 41.26,23.7 29.3,15.53 61.54,31.89 97.22,45.47 17.58,7.51 36.2,13.61 55.08,20.46 9.47,3.38 19.22,6.14 29.03,9.06 9.84,2.86 19.71,5.97 29.88,8.33 10.11,2.57 20.33,5.11 30.61,7.69 10.29,2.47 20.78,4.45 31.29,6.7 20.97,4.84 42.56,7.66 64.22,11.01 10.92,1.2 21.84,2.4 32.83,3.63l16.49 1.73 16.81 1.2c11.18,0.71 22.38,1.45 33.6,2.15l32.56 0.92c45.11,0.07 89.28,-1.87 132.99,-6.91 43.65,-4.2 86.09,-12.67 126.66,-22.34 40.74,-8.99 79.04,-22.01 114.88,-34.96 35.73,-13.4 68.79,-27.86 98.2,-43.27 14.94,-7.23 28.75,-15.17 41.86,-22.65 13.12,-7.48 24.96,-15.63 36.35,-22.68 22.38,-14.89 41.5,-28.26 56.71,-40.17 15.66,-11.29 26.46,-21.67 34.27,-28.3 7.71,-6.74 11.8,-10.33 11.8,-10.33l-1.97 -2.76c0,0 -4.43,3.14 -12.72,9.04l-0.03 0z"/>
   <path class="fil0" d="M2188.54 360.47c0.21,-3.17 0.73,-7.69 2.01,-12.98 0.63,-2.61 1.32,-5.5 2.41,-8.39 0.94,-3 2.11,-6.07 3.51,-9.18 1.38,-3.1 2.97,-6.28 4.7,-9.38 1.98,-3.03 3.77,-6.21 5.93,-9.17 2.33,-2.86 4.45,-5.82 7,-8.4 2.41,-2.71 5,-5.11 7.7,-7.27 1.33,-1.09 2.58,-2.22 3.92,-3.21 1.33,-0.95 2.75,-1.76 4.07,-2.61 2.64,-1.72 5.14,-3.28 7.74,-4.26 2.48,-1.13 4.78,-2.05 6.83,-2.83 2.12,-0.6 4.01,-1.02 5.56,-1.37 3.06,-0.64 4.82,-0.88 4.82,-0.88l0.25 0.67c0,0 -1.55,0.74 -4.28,2.04 -1.36,0.64 -3,1.45 -4.89,2.33 -1.79,1.09 -3.79,2.36 -5.96,3.74 -2.27,1.27 -4.4,3.1 -6.74,4.9 -1.16,0.92 -2.39,1.84 -3.56,2.86 -1.11,1.06 -2.27,2.19 -3.45,3.28 -2.4,2.15 -4.61,4.69 -6.83,7.27 -2.34,2.47 -4.28,5.36 -6.39,8.08 -2.11,2.75 -3.9,5.75 -5.85,8.53 -1.68,2.97 -3.51,5.79 -4.97,8.72 -3.07,5.75 -5.54,11.32 -7.47,16.16 -3.89,9.73 -5.46,16.51 -5.46,16.51l-0.68 -0.15c0,0 -0.03,-0.45 -0.03,-1.34 0,-0.81 -0.03,-2.11 0.11,-3.67zm100.12 -47.15c1.07,0.03 2.12,0.03 3.18,0.07 1,6.77 1.96,13.16 2.69,18.87 2.45,18.7 4.17,30.34 5.47,40.81 -15.13,1.41 -30.21,3.03 -45.09,5.18 -8.5,1.35 -16.94,2.69 -25.36,4.03 1.31,-15.31 4.31,-28.58 9.89,-37.5 0.14,-0.25 0.24,-0.53 0.39,-0.74 14.01,-21.42 24.57,-31.51 48.83,-30.73l0 0.01zm8.76 -116.48c0.21,-3.17 0.74,-7.69 2.03,-12.95 0.63,-2.64 1.32,-5.53 2.39,-8.43 0.94,-3 2.11,-6.06 3.52,-9.17 1.39,-3.1 2.96,-6.28 4.71,-9.38 1.96,-3 3.75,-6.21 5.93,-9.14 2.3,-2.86 4.43,-5.82 6.98,-8.43 2.41,-2.68 5.02,-5.12 7.71,-7.27 1.32,-1.09 2.59,-2.22 3.91,-3.17 1.34,-0.99 2.76,-1.8 4.08,-2.65 2.63,-1.73 5.15,-3.25 7.72,-4.27 2.49,-1.13 4.8,-2.04 6.83,-2.82 2.14,-0.6 4.04,-1.02 5.57,-1.34 3.07,-0.67 4.81,-0.92 4.81,-0.92l0.27 0.67c0,0 -1.55,0.74 -4.27,2.05 -1.37,0.63 -3.02,1.41 -4.9,2.33 -1.78,1.09 -3.78,2.36 -5.97,3.74 -2.26,1.27 -4.4,3.1 -6.74,4.9 -1.14,0.95 -2.4,1.83 -3.54,2.86 -1.12,1.09 -2.27,2.18 -3.45,3.31 -2.41,2.16 -4.61,4.66 -6.85,7.24 -2.32,2.5 -4.28,5.36 -6.37,8.11 -2.13,2.72 -3.92,5.71 -5.85,8.5 -1.68,2.96 -3.51,5.82 -4.97,8.71 -3.09,5.75 -5.56,11.33 -7.5,16.2 -3.86,9.7 -5.44,16.51 -5.44,16.51l-0.69 -0.18c0,0 -0.02,-0.46 -0.04,-1.3 0.02,-0.85 -0.03,-2.16 0.12,-3.71zm100.12 -47.16c15.52,0.5 31.03,0.5 46.54,0 24.26,-0.77 34.83,9.35 48.83,30.73 20.17,30.8 8.48,114.89 0,160.99 -2.04,10.97 -3.41,21.24 -4.48,31.15 -7.9,-0.67 -15.89,-1.23 -23.79,-1.8l-18.04 -1.16c-0.49,-0.04 -0.93,-0.04 -1.41,-0.07 -5.09,-33.13 -19.13,-63.92 -51.02,-83.6 -18.01,-11.11 -36.83,-17.29 -55.56,-19.9 -2.49,-34.54 -1.17,-68.39 10.09,-85.61 14.02,-21.38 24.56,-31.5 48.83,-30.73l0.01 0zm66.59 -16.05c0,0 0.62,0 1.84,0.22 1.2,0.14 3.02,0.35 5.2,0.95 2.18,0.6 4.88,1.3 7.79,2.57 1.46,0.64 3.03,1.31 4.68,2.01 1.6,0.78 3.21,1.8 4.94,2.79 3.5,1.91 6.95,4.48 10.48,7.44 1.71,1.56 3.45,3.18 5.23,4.8l1.36 1.27 1.17 1.41c0.79,0.99 1.59,1.98 2.37,2.93 3.32,3.85 6.21,8.29 8.85,12.98 1.44,2.26 2.29,4.84 3.47,7.31 1.04,2.5 2.3,4.93 3.11,7.51 0.69,2.65 1.38,5.26 2.07,7.87 0.71,2.61 1.42,5.22 1.67,7.83 0.41,2.61 0.67,5.22 0.92,7.8 0.28,2.57 0.51,5.11 0.37,7.58 0,4.97 -0.29,9.81 -0.64,14.29 -0.67,4.44 -1.55,8.61 -2.37,12.42 -0.42,1.9 -0.7,3.73 -1.19,5.43 -0.6,1.69 -1.17,3.28 -1.71,4.76 -1.02,3 -2.09,5.5 -2.92,7.62 -0.81,2.08 -1.64,3.67 -2.12,4.76 -0.5,1.1 -0.77,1.7 -0.77,1.7l-1.06 -0.25c0,0 0.37,-2.47 1,-6.77 0.33,-2.12 0.73,-4.73 1.16,-7.73 0.22,-1.48 0.45,-3.07 0.7,-4.76 0.13,-1.7 0.22,-3.46 0.33,-5.33 0.22,-3.7 0.44,-7.73 0.69,-11.96 -0.08,-4.27 -0.4,-8.75 -0.59,-13.37 -0.01,-2.33 -0.41,-4.66 -0.83,-6.98 -0.37,-2.37 -0.77,-4.73 -1.17,-7.13 -0.27,-2.43 -0.99,-4.76 -1.68,-7.13 -0.69,-2.36 -1.36,-4.72 -2.05,-7.09 -0.69,-2.36 -1.79,-4.58 -2.68,-6.84 -1,-2.22 -1.66,-4.62 -2.93,-6.7 -2.37,-4.2 -4.51,-8.47 -7.36,-12.1 -2.51,-3.88 -5.55,-7.13 -8.32,-10.3 -1.4,-1.56 -2.98,-2.86 -4.4,-4.24 -1.41,-1.41 -2.82,-2.68 -4.28,-3.77 -1.45,-1.13 -2.83,-2.23 -4.14,-3.25 -1.38,-0.95 -2.69,-1.87 -3.91,-2.71 -2.47,-1.66 -4.73,-2.93 -6.61,-3.96 -3.76,-2.01 -6.03,-2.85 -6.03,-2.85l0.36 -1.03zm72.45 181.84c0.22,0.04 1.4,0.21 1.64,0.14 0.29,-0.03 0.64,-0.14 0.91,-0.32 0.55,-0.28 1.07,-1.09 1.46,-2.18 0.33,-1.1 0.67,-2.26 0.84,-3.5 0.41,-2.43 0.81,-4.79 1.06,-6.8 0.24,-2.05 0.65,-3.74 0.81,-4.94 0.25,-1.2 0.44,-1.87 0.44,-1.87l0.21 0c0,0 -0.08,2.75 -0.21,6.84 -0.06,2.05 -0.16,4.45 -0.45,7.02 -0.12,1.27 -0.37,2.61 -0.76,3.92 -0.41,1.27 -1.07,2.61 -2.33,3.38 -1.26,0.74 -2.77,0.6 -4.03,0.32 -1.31,-0.28 -2.58,-0.56 -3.81,-0.85 -2.47,-0.52 -4.78,-1.05 -6.75,-1.51 -3.95,-0.88 -6.59,-1.45 -6.59,-1.45l0.06 -0.25c0,0 0.69,0 1.87,0.07 1.19,0.11 2.91,0.11 4.94,0.39 1.98,0.25 4.36,0.46 6.86,0.88 1.24,0.22 2.54,0.43 3.83,0.71zm-26.43 135.06c-3.97,0 -7.21,-3.28 -7.21,-7.34 0,-4.06 3.24,-7.34 7.21,-7.34 4,0 7.22,3.28 7.22,7.34 0,4.06 -3.22,7.34 -7.22,7.34zm-4.38 -136.68c-0.04,-0.5 -0.03,-0.25 -0.03,-0.25 0.22,0.21 0.8,0.67 1.53,1.02 1.5,0.82 3.47,1.45 5.42,1.91 1.98,0.49 3.98,0.99 5.93,1.34 3.93,0.74 7.68,1.62 10.92,2.15 3.24,0.5 5.93,1.27 7.81,1.59 1.9,0.42 2.98,0.74 2.98,0.74l-0.01 0.35c0,0 -4.39,-0.1 -10.95,-0.53 -3.29,-0.24 -7.11,-0.56 -11.19,-1.09 -4.05,-0.64 -8.46,-1.27 -12.54,-3.21 -0.99,-0.53 -1.97,-1.16 -2.68,-2.15 -0.33,-0.46 -0.61,-1.03 -0.68,-1.66 -0.07,-0.6 0.01,-1.2 0.06,-1.69 0.16,-2.19 0.44,-4.34 0.74,-6.42 0.58,-4.13 1.31,-7.98 1.94,-11.26 1.31,-6.52 2.4,-10.86 2.4,-10.86l0.33 0.1c0,0 0,1.13 -0.09,3.11 -0.17,1.94 -0.21,4.76 -0.53,8.08 -0.28,3.31 -0.58,7.16 -0.93,11.28 -0.2,2.01 -0.28,4.13 -0.42,6.25l-0.05 0.74c-0.02,-0.32 0,0.53 0.04,0.46zm22.4 165.75c0,0 -0.11,-0.28 -0.33,-0.81 -0.27,-0.5 -0.34,-1.41 -1.04,-2.23 -0.32,-0.42 -0.67,-0.88 -1.05,-1.41 -0.47,-0.42 -1.02,-0.81 -1.59,-1.3 -1.21,-0.85 -2.72,-1.63 -4.46,-2.15 -1.74,-0.57 -3.69,-0.99 -5.78,-1.24 -2.08,-0.32 -4.28,-0.46 -6.6,-0.56 -2.28,-0.07 -4.65,-0.18 -7.08,-0.25 -2.42,-0.14 -4.9,-0.21 -7.34,-0.74 -0.61,-0.07 -1.23,-0.28 -1.85,-0.53l-0.91 -0.39 -0.74 -0.53c-1.11,-0.81 -1.55,-2.15 -1.93,-3.31 -0.65,-2.44 -0.84,-4.87 -0.9,-7.24 -0.1,-4.69 0.28,-9.06 0.66,-12.77 0.79,-7.48 1.27,-15.87 1.27,-15.87l1.64 -21.1c0,0 0.81,11.79 0.81,14.01 0.02,2.19 -0.88,18.48 -0.87,22.22 0.06,3.71 -0.68,9 -0.34,13.41 0.11,2.22 0.54,4.48 1.04,6.31 0.27,0.89 0.64,1.56 0.76,1.48l0.75 0.53c0.14,0 0.25,0 0.34,0 0.1,0 0.2,0.04 0.29,0.07l0.75 0.15c1.94,0.49 4.39,0.63 6.71,0.77 2.4,0.14 4.78,0.35 7.12,0.6 2.35,0.18 4.63,0.57 6.78,1.06 2.18,0.49 4.23,1.06 6.07,1.87 1.86,0.71 3.47,1.8 4.68,2.93 0.6,0.63 1.15,1.16 1.59,1.73 0.35,0.63 0.69,1.2 0.97,1.72 0.67,0.99 0.55,2.05 0.78,2.62 0.09,0.56 0.15,0.88 0.15,0.88l-0.35 0.07zm-58.34 29.84c-1.25,1.66 -2.56,3.18 -3.92,4.59 -8.96,9.17 -20.21,12.38 -31.84,12.42 1.11,-8.15 2.43,-17.64 4.12,-30.55 1.97,-15.1 5.27,-34.36 7.4,-55.27 13.03,0.49 26.04,1.2 38.98,2.11 -0.78,25.09 -2.21,45.11 -10.99,60.88 -1.17,2.12 -2.42,4.02 -3.75,5.82zm-18.27 23.39c-0.37,0.11 -2.66,0.85 -6.56,2.12 -2.15,0.7 -4.71,1.62 -7.74,2.4 -3.05,0.74 -6.41,1.87 -10.2,2.57 -3.78,0.78 -7.85,1.73 -12.26,2.19 -4.36,0.74 -9.05,0.95 -13.87,1.09 -4.83,0 -9.88,-0.31 -14.91,-1.3 -2.49,-0.57 -5.01,-1.06 -7.45,-2.01 -2.51,-0.74 -4.85,-1.91 -7.23,-3.04 -4.54,-2.61 -8.84,-5.78 -12.22,-9.73 -3.39,-3.95 -6.09,-8.33 -8.11,-12.84 -3.95,-9.11 -5.41,-18.31 -5.89,-26.11 -0.12,-1.94 -0.18,-3.74 -0.21,-5.5 -0.05,-5.4 0.29,-9.99 0.64,-13.44 0.48,-4.52 1.02,-7.13 1.02,-7.13l1.06 0.21c0,0 0.05,0.67 0.18,1.91 0.15,1.23 0.4,3.03 0.67,5.32 0.32,2.23 0.73,4.94 1.19,8.05 0.48,3.07 1.2,6.49 1.94,10.09 0.82,3.63 1.96,7.4 3.13,11.29 1.31,3.84 3.07,7.62 4.91,11.32 1.93,3.63 4.56,6.74 7.15,9.74 2.7,2.99 6.05,5.22 9.59,7.16 1.28,0.63 2.57,1.3 3.94,1.87 -0.03,0.17 -0.06,0.31 -0.07,0.46 0.57,0.24 1.12,0.53 1.74,0.7 1.9,0.85 4,1.31 6.06,1.84 1.02,0.31 2.09,0.45 3.17,0.63 1.09,0.21 2.14,0.42 3.2,0.64 2.15,0.42 4.36,0.49 6.52,0.74 2.14,0.28 4.34,0.03 6.47,0.28 2.15,0.21 4.29,0.1 6.38,0.07 4.15,-0.04 8.16,-0.28 11.91,-0.46 1.89,0 3.68,-0.25 5.4,-0.35 0.7,-0.07 1.34,-0.11 2.03,-0.18 0.03,-0.14 0.04,-0.32 0.06,-0.49 0.96,-0.04 1.93,-0.11 2.83,-0.18 3.14,-0.25 5.86,-0.46 8.1,-0.63 2.26,-0.25 4.1,-0.25 5.32,-0.32 1.24,-0.07 1.92,-0.07 1.92,-0.07l0.34 1.02c0,0 -0.12,0.04 -0.15,0.07zm-32.27 110.41c0,0 -0.1,-0.28 -0.31,-0.81 -0.27,-0.49 -0.35,-1.41 -1.06,-2.22 -0.31,-0.43 -0.66,-0.88 -1.06,-1.41 -0.47,-0.43 -1.02,-0.85 -1.58,-1.31 -1.2,-0.85 -2.72,-1.62 -4.47,-2.15 -1.72,-0.6 -3.68,-0.99 -5.76,-1.24 -2.06,-0.31 -4.3,-0.45 -6.58,-0.56 -2.31,-0.07 -4.69,-0.18 -7.1,-0.28 -2.43,-0.11 -4.89,-0.18 -7.36,-0.71 -0.61,-0.1 -1.23,-0.28 -1.83,-0.56l-0.93 -0.35 -0.73 -0.57c-1.11,-0.81 -1.56,-2.12 -1.93,-3.28 -0.64,-2.43 -0.85,-4.9 -0.88,-7.23 -0.12,-4.69 0.25,-9.07 0.64,-12.81 0.78,-7.44 1.68,-12.35 1.68,-12.35l0.37 0.04c0,0 0.04,1.27 0.04,3.49 0.03,2.19 0.04,5.29 0.06,9.07 0.04,3.7 0.02,8.04 0.37,12.45 0.11,2.22 0.52,4.48 1.03,6.32 0.28,0.84 0.65,1.55 0.77,1.48l0.73 0.53c0.14,-0.04 0.25,-0.04 0.36,-0.04 0.1,0.04 0.21,0.04 0.29,0.11l0.75 0.14c1.94,0.46 4.38,0.6 6.72,0.78 2.38,0.14 4.76,0.35 7.1,0.56 2.34,0.21 4.63,0.56 6.79,1.09 2.16,0.46 4.22,1.06 6.06,1.87 1.87,0.67 3.46,1.8 4.69,2.93 0.58,0.6 1.13,1.17 1.6,1.73 0.34,0.6 0.67,1.2 0.98,1.73 0.64,0.95 0.53,2.04 0.74,2.57 0.1,0.6 0.15,0.92 0.15,0.92l-0.34 0.07zm-18 -43.73c3.98,0 7.22,3.28 7.22,7.33 0,4.06 -3.24,7.34 -7.22,7.34 -4,0 -7.22,-3.28 -7.22,-7.34 0,-4.05 3.22,-7.33 7.22,-7.33zm-67.93 -238.38c-0.8,-7.55 -1.91,-15.49 -2.6,-23.78 -0.73,-7.76 -1.52,-15.8 -2.3,-23.92 1.65,-0.03 3.31,-0.03 4.96,-0.07 1.75,20.39 3.29,39.93 4.56,56.9 -1.19,0.07 -2.4,0.1 -3.58,0.21 -0.33,-3.07 -0.69,-6.14 -1.04,-9.35l0 0.01zm-5.29 -102.19c0.25,1.98 0.44,4.02 0.66,6.03 -1.75,-0.1 -3.5,-0.24 -5.23,-0.31 -0.15,-1.7 -0.33,-3.43 -0.51,-5.12 -0.72,-8.68 -2.21,-16.86 -2.53,-25.75 -0.26,-8.75 0.78,-17.18 2.91,-24.8 2.07,-7.66 4.91,-14.57 8.02,-20.61 3.07,-6.06 6.51,-11.25 9.87,-15.55 3.32,-4.34 6.49,-7.87 9.18,-10.69 2.68,-2.82 5.01,-4.8 6.6,-6.11 1.58,-1.37 2.48,-2.01 2.48,-2.01l0.34 0.43c0,0 -3.3,2.85 -8.29,8.71 -4.92,5.82 -11.59,14.71 -17.17,26.67 -5.61,11.89 -9.86,27.2 -9.17,43.7 0.4,8.26 2,16.72 2.84,25.4l0 0.01zm55.94 85.12c4.04,6.13 6.74,14.49 8.52,24.16 -13.23,0.21 -26.45,0.67 -39.65,1.24 -1.05,-8.97 -2.36,-18.24 -4.18,-28.05 -1.5,-8.22 -3.13,-17.67 -4.64,-27.8 18.2,1.84 27.81,11.85 39.95,30.45zm25.13 24.48c-0.34,-2.19 -0.94,-4.31 -1.57,-6.42 -0.67,-2.37 -1.35,-4.73 -2.03,-7.09 -0.71,-2.37 -1.8,-4.59 -2.68,-6.88 -1.02,-2.22 -1.68,-4.62 -2.95,-6.67 -2.35,-4.2 -4.49,-8.47 -7.36,-12.1 -2.49,-3.88 -5.53,-7.13 -8.31,-10.27 -1.37,-1.58 -2.99,-2.89 -4.38,-4.26 -1.43,-1.42 -2.84,-2.72 -4.3,-3.78 -1.45,-1.16 -2.82,-2.22 -4.13,-3.28 -1.39,-0.95 -2.67,-1.83 -3.92,-2.68 -2.46,-1.66 -4.73,-2.93 -6.6,-3.95 -3.77,-2.05 -6.05,-2.86 -6.05,-2.86l0.38 -1.06c0,0 0.63,0.04 1.83,0.21 1.21,0.18 3.02,0.39 5.21,0.99 2.16,0.6 4.89,1.27 7.78,2.54 1.48,0.67 3.05,1.34 4.69,2.05 1.6,0.77 3.2,1.76 4.92,2.75 3.5,1.9 6.94,4.51 10.51,7.48 1.69,1.55 3.44,3.14 5.23,4.8l1.33 1.23 1.17 1.45c0.79,0.95 1.59,1.94 2.4,2.92 3.32,3.85 6.2,8.26 8.83,12.95 1.47,2.29 2.29,4.87 3.47,7.34 1.03,2.5 2.32,4.94 3.11,7.51 0.7,2.61 1.39,5.26 2.06,7.87 0.72,2.61 1.43,5.19 1.69,7.83 0.08,0.53 0.11,1.1 0.19,1.63l-10.52 -0.25zm24.52 108.86c-0.41,1.3 -1.09,2.64 -2.33,3.42 -1.27,0.77 -2.77,0.6 -4.05,0.31 -1.28,-0.28 -2.56,-0.56 -3.8,-0.84 -2.47,-0.57 -4.77,-1.06 -6.74,-1.52 -3.94,-0.88 -6.58,-1.48 -6.58,-1.48l0.03 -0.18c0,0 0.7,-0.03 1.9,0.04 1.18,0.1 2.9,0.1 4.91,0.35 2.01,0.28 4.38,0.5 6.88,0.92 1.24,0.25 2.53,0.39 3.84,0.67 0.19,0.07 1.39,0.25 1.61,0.14 0.29,-0.04 0.64,-0.11 0.91,-0.28 0.55,-0.28 1.11,-1.1 1.48,-2.19 0.31,-1.09 0.66,-2.29 0.85,-3.49 0.4,-2.44 0.79,-4.8 1.04,-6.85 0.24,-2.01 0.64,-3.74 0.84,-4.9 0.23,-1.2 0.41,-1.87 0.41,-1.87l0.21 0c0,0 -0.09,2.75 -0.21,6.84 -0.07,2.05 -0.14,4.45 -0.44,7.02 -0.13,1.27 -0.39,2.58 -0.76,3.89zm-51.98 41.65c-5.14,-3.56 -9.81,-8.5 -13.66,-15.42 -7.86,-14.14 -9.84,-31.57 -10.69,-53.08 -0.14,-3.32 -0.25,-6.77 -0.33,-10.27 12.07,-0.42 24.18,-0.7 36.29,-0.77 -2.2,24.02 -5.98,47.65 -9.27,65.53 -0.87,4.77 -1.66,9.42 -2.34,14.01zm15.21 -41.58c-0.03,-0.46 -0.01,-0.22 0.03,-0.22 0.18,0.22 0.74,0.67 1.49,1.03 1.5,0.77 3.46,1.41 5.42,1.9 1.96,0.46 3.96,0.99 5.93,1.34 3.94,0.74 7.66,1.63 10.9,2.12 3.24,0.53 5.93,1.27 7.83,1.62 1.89,0.43 2.99,0.74 2.99,0.74l-0.02 0.36c0,0 -4.39,-0.11 -10.95,-0.53 -3.28,-0.25 -7.13,-0.57 -11.2,-1.13 -4.04,-0.6 -8.45,-1.24 -12.54,-3.18 -0.98,-0.53 -1.96,-1.2 -2.69,-2.11 -0.32,-0.53 -0.59,-1.06 -0.68,-1.73 -0.05,-0.57 0.03,-1.17 0.06,-1.7 0.18,-2.18 0.45,-4.33 0.74,-6.38 0.61,-4.13 1.31,-7.97 1.95,-11.25 1.31,-6.57 2.39,-10.87 2.39,-10.87l0.35 0.11c0,0 0,1.12 -0.1,3.1 -0.18,1.94 -0.2,4.76 -0.51,8.08 -0.27,3.31 -0.6,7.16 -0.96,11.25 -0.17,2.05 -0.28,4.17 -0.42,6.25l-0.04 0.81c-0.02,-0.39 0.02,0.49 0.03,0.39zm-71.8 212.62c-8.76,0 -17.56,0 -26.35,0 -15.29,0 -29.97,-5.5 -39.58,-22.82 -8.74,-15.74 -10.22,-35.53 -10.95,-60.43 -0.83,-27.26 -0.8,-60.63 -8.38,-101.8 -2.77,-15.03 -5.86,-34.08 -8.08,-53.96 10.35,-1.48 20.76,-2.89 31.22,-4.16 13.78,-1.56 27.68,-2.76 41.62,-3.81 0.11,2.5 0.19,4.93 0.33,7.44 1.91,37.46 6.94,77.71 33.05,99.33 12.49,10.34 24.88,18.03 38.79,22.37 -1.88,42.07 0.38,72.62 -12.05,95.03 -9.65,17.32 -24.31,22.82 -39.61,22.82l-0.01 -0.01zm11.04 8.5c-2.15,0.67 -4.73,1.63 -7.74,2.37 -3.05,0.77 -6.43,1.9 -10.22,2.61 -3.76,0.77 -7.84,1.69 -12.24,2.18 -4.38,0.74 -9.06,0.96 -13.88,1.06 -4.84,0 -9.87,-0.28 -14.89,-1.3 -2.49,-0.53 -5.04,-1.03 -7.47,-1.98 -2.52,-0.7 -4.86,-1.9 -7.22,-3.03 -4.56,-2.61 -8.86,-5.79 -12.24,-9.77 -3.39,-3.92 -6.08,-8.33 -8.1,-12.81 -3.95,-9.1 -5.41,-18.31 -5.89,-26.14 -0.49,-7.83 -0.03,-14.36 0.44,-18.91 0.49,-4.52 1,-7.13 1,-7.13l1.08 0.22c0,0 0.04,0.67 0.18,1.9 0.13,1.24 0.38,3.03 0.66,5.29 0.34,2.26 0.74,4.98 1.18,8.08 0.48,3.07 1.21,6.49 1.94,10.13 0.82,3.59 1.98,7.4 3.15,11.25 1.32,3.84 3.06,7.62 4.89,11.29 1.93,3.67 4.56,6.77 7.18,9.77 2.67,3 6.04,5.22 9.56,7.13 1.81,0.95 3.58,1.94 5.63,2.57 1.88,0.85 4,1.31 6.07,1.84 1.01,0.31 2.08,0.45 3.16,0.63 1.07,0.21 2.15,0.42 3.19,0.64 2.14,0.42 4.36,0.45 6.52,0.74 2.15,0.28 4.36,0.03 6.5,0.28 2.13,0.18 4.26,0.1 6.35,0.07 4.14,-0.04 8.18,-0.28 11.92,-0.46 1.87,-0.03 3.66,-0.25 5.39,-0.39 1.75,-0.1 3.37,-0.24 4.93,-0.35 3.13,-0.21 5.85,-0.46 8.09,-0.64 2.26,-0.21 4.1,-0.21 5.33,-0.28 1.25,-0.03 1.9,-0.07 1.9,-0.07l0.34 1.03c0,0 -2.42,0.81 -6.69,2.18zm-103.56 -108.61c0,0 -0.15,-1.09 -0.46,-3.17 -0.27,-2.05 -0.78,-5.08 -1.25,-8.89 -0.5,-3.85 -1.1,-8.54 -1.8,-13.9 -0.67,-5.33 -1.54,-11.36 -2.2,-17.96 -0.75,-6.6 -1.53,-13.76 -2.37,-21.31 -0.8,-7.58 -1.91,-15.52 -2.6,-23.77 -1.56,-16.48 -3.3,-34.08 -5.21,-51.64 -0.85,-8.78 -1.71,-17.57 -2.57,-26.21 -0.71,-8.64 -2.2,-16.83 -2.53,-25.75 -0.26,-8.75 0.77,-17.15 2.92,-24.8 2.08,-7.62 4.88,-14.54 8.02,-20.57 1.32,-2.61 2.73,-4.98 4.13,-7.23 1.91,-3.04 3.81,-5.86 5.72,-8.33 3.32,-4.34 6.49,-7.87 9.19,-10.69 2.68,-2.82 5.01,-4.8 6.59,-6.14 1.59,-1.34 2.48,-1.97 2.48,-1.97l0.36 0.42c0,0 -3.32,2.86 -8.28,8.71 -3.66,4.31 -8.26,10.31 -12.67,18 -1.54,2.68 -3.07,5.57 -4.52,8.67 -5.62,11.89 -9.85,27.17 -9.16,43.7 0.39,8.22 1.98,16.73 2.84,25.37 1.02,8.68 1.95,17.46 2.78,26.28 3.37,35.24 6.04,70.51 8.01,97 1.87,26.46 3.11,44.09 3.11,44.09l-0.53 0.07 0 0.02zm-229.15 -139.71c-18.43,7.9 -36.08,16.12 -52.75,24.87 -16.75,8.57 -32.26,18.24 -47.38,26.7 -14.84,9.07 -28.99,17.82 -42.13,26.53 -12.77,9.28 -24.9,18.1 -36.28,26.39 -11.02,8.75 -21.5,16.58 -30.72,24.52 -9.3,7.76 -17.53,15.59 -25.04,22.22 -15.29,13.16 -25.41,25.01 -33.02,32.53 -7.37,7.69 -11.18,11.99 -11.18,11.99l4.06 5.86c0,0 4.6,-3.14 13.27,-9 8.7,-5.78 21.18,-14.81 37.79,-24.83 8.28,-5.08 17.21,-11.04 27.39,-16.86 10.19,-5.83 21.17,-12.14 32.91,-18.84 12,-6.28 24.76,-12.99 38.21,-20.01 13.73,-6.49 27.98,-13.68 43.08,-20.63 30.47,-13.48 63.66,-27.66 99.86,-39.79 35.94,-12.77 74.71,-23.7 115.19,-33.19 14.35,-3.46 29.03,-6.39 43.83,-9.14 1.81,13.51 3.79,25.89 5.15,36.34 5.79,44.12 7.5,48.99 9.29,92.2 1.81,43.24 1.81,98.63 34.16,125.39 20.5,16.97 40.69,26.96 67.81,26.32 10.02,-0.21 20.05,-0.21 30.06,0 27.13,0.64 47.32,-9.35 67.79,-26.32 32.38,-26.77 32.38,-82.15 34.17,-125.39 0.17,-4.34 0.35,-8.25 0.55,-11.92 2.12,0.03 4.26,-0.04 6.39,0 12.58,0.32 23.65,-1.8 33.98,-5.72 11.92,-4.51 22.84,-11.5 33.81,-20.6 5.89,-4.87 10.7,-10.72 14.65,-17.25 14,-23.14 17.11,-55.06 18.53,-84.83 39.97,5.01 79.24,11.15 116.68,20.11 10.19,2.04 20.16,4.72 30.06,7.3 9.86,2.64 19.72,4.97 29.31,7.83 19.14,5.89 38.03,11.15 55.94,17.71 36.23,11.99 69.48,26.07 99.96,39.47 15.16,6.87 29.41,14.11 43.17,20.49 13.46,6.99 26.25,13.65 38.25,19.9 11.78,6.7 22.79,12.95 32.98,18.73 10.22,5.79 19.18,11.75 27.49,16.79 16.69,10.02 29.12,18.95 37.81,24.7 8.65,5.82 13.26,8.92 13.26,8.92l4.15 -5.78c0,0 -3.8,-4.27 -11.26,-11.96 -7.62,-7.48 -18.12,-19.51 -33.32,-32.49 -7.53,-6.6 -15.64,-14.33 -25,-22.05 -9.23,-7.87 -19.69,-15.74 -30.77,-24.41 -11.43,-8.22 -23.59,-16.97 -36.4,-26.22 -13.14,-8.71 -27.31,-17.42 -42.21,-26.38 -30.02,-17.47 -63.19,-36.09 -100.27,-51.25 -18.26,-8.36 -37.59,-15.45 -57.27,-23.25 -9.87,-3.77 -20.04,-7.06 -30.3,-10.37 -10.28,-3.32 -20.66,-6.7 -31.29,-9.49 -10.6,-2.93 -21.27,-6.03 -32.09,-8.86 -10.92,-2.39 -21.91,-4.83 -32.99,-7.3 -20.18,-4.58 -40.88,-7.97 -61.77,-11.04 0.04,-0.39 0.08,-0.78 0.14,-1.16 1.35,-11.82 3.2,-23.99 6.01,-45.47 7.16,-54.67 31.46,-163.42 -44.04,-209.98 -26.58,-16.4 -54.94,-22.22 -82.23,-21.3 -27.3,-0.92 -55.65,4.9 -82.24,21.3 -50.98,31.47 -56.44,91.26 -52.4,143.64 -19.06,2.54 -38.18,8.71 -56.48,20 -39.32,24.23 -51.54,65.36 -53.23,106.95 -7.46,1.62 -14.88,3.28 -22.21,5.04 -10.85,2.79 -21.5,5.9 -32.1,8.86 -10.63,2.79 -20.95,6.38 -31.23,9.63 -10.26,3.39 -20.5,6.42 -30.3,10.48 -19.69,7.76 -38.96,15.03 -57.2,23.39l-0.04 -0.02z"/>
   <path class="fil0" d="M172.64 1685.72c-8.05,0 -15.03,-1.06 -20.96,-3.17 -7.2,-2.12 -10.79,-8.05 -10.79,-17.79l0 -368.88c0,-7.2 -1.27,-17.99 -3.81,-32.39 -2.97,-13.12 -4.45,-23.91 -4.45,-32.38l0 -1.91c7.2,-11.85 12.49,-19.47 15.88,-22.86 5.92,0 13.75,-0.84 23.49,-2.54 8.89,-1.69 16.72,-2.54 23.5,-2.54 6.77,0 13.33,2.02 19.68,6.04 6.35,4.02 9.53,8.78 9.53,14.28 0,12.7 -9.74,19.05 -29.21,19.05l-8.89 0c-2.54,-0.42 -5.51,-0.63 -8.89,-0.63 -3.81,0 -6.14,0.21 -6.99,0.63 0,14.4 0.85,31.75 2.54,52.06l1.27 17.78 1.27 34.93c0,8.04 -0.63,20.32 -1.9,36.83l-1.27 35.56 8.89 -1.91c8.46,-2.54 15.45,-3.81 20.95,-3.81 4.66,0 8.89,1.8 12.7,5.4 3.81,3.6 5.72,7.73 5.72,12.38 0,5.08 -1.59,9.64 -4.77,13.66 -3.17,4.02 -7.09,6.03 -11.74,6.03l-7.62 -0.64 -8.26 0c-6.35,0 -10.79,1.49 -13.33,4.45l0 196.19 35.56 -1.9c24.13,0 36.19,5.5 36.19,16.51l0 2.54c-2.54,5.08 -7.2,9.21 -13.97,12.38 -6.77,3.18 -13.33,5.19 -19.68,6.04l-20.96 0.63 -19.68 0 0 -0.02zm146.03 -1.9c-5.08,0 -9.53,-1.27 -13.34,-3.82 -3.81,-2.54 -5.71,-6.13 -5.71,-10.79 0,-13.55 1.79,-28.68 5.39,-45.39 3.6,-16.72 8.79,-36.73 15.56,-60l6.35 -24.77c5.93,-23.7 8.89,-44.22 8.89,-61.58 0,-12.28 -5.4,-42.54 -16.19,-90.8 -10.8,-48.25 -18.52,-75.76 -23.18,-82.54l0 -6.98c-4.23,-3.81 -6.35,-9.1 -6.35,-15.88 0,-3.81 1.91,-6.87 5.72,-9.2 3.81,-2.33 8.25,-3.5 13.33,-3.5 5.08,0 9.31,3.6 12.7,10.8 6.35,11.85 12.7,33.65 19.05,65.39 3.39,14.4 5.72,26.46 6.99,36.2l4.44 23.49c0,0 0.85,-5.08 2.54,-15.24l1.91 -12.7c1.69,-10.16 2.75,-16.93 3.17,-20.32 1.69,-11.43 2.54,-22.43 2.54,-33.02l0 -11.43 0 -9.52c0,-11.85 2.01,-20.96 6.03,-27.31 4.02,-6.35 11.54,-11 22.55,-13.97l11.43 15.24c-2.97,4.66 -5.4,10.38 -7.31,17.15 -1.9,6.77 -2.85,12.7 -2.85,17.78 -0.43,2.96 -0.64,9.52 -0.64,19.68l0 6.99c-5.08,13.55 -10.37,37.15 -15.87,70.79 -5.51,33.66 -8.26,58.09 -8.26,73.33 0,13.13 2.86,29.74 8.57,49.84 5.72,20.11 14.29,47.93 25.72,83.49 7.62,22.86 11.43,39.58 11.43,50.16 0,4.23 -1.69,7.94 -5.08,11.11 -3.39,3.18 -7.41,4.76 -12.06,4.76 -7.2,0 -13.55,-7.62 -19.05,-22.86 -5.51,-12.7 -10.16,-28.78 -13.97,-48.25 -5.08,-23.7 -8.05,-39.57 -8.89,-47.61l-3.18 -14.61 -5.71 46.98c-2.54,23.29 -5.93,42.75 -10.16,58.41l0 6.99c0,15.66 -5.51,23.5 -16.51,23.5l0 0.01zm184.77 -12.07l-0.64 -24.77c-0.42,-7.19 -0.63,-15.24 -0.63,-24.13l0.63 -21.59c-1.27,-4.65 -4.44,-51 -9.52,-139.04 -5.08,-88.04 -8.05,-144.55 -8.89,-169.53 -24.56,-0.84 -40.21,-3.38 -46.98,-7.62 -4.66,-3.38 -6.99,-7.19 -6.99,-11.43 0,-3.38 2.22,-6.45 6.67,-9.2 4.44,-2.75 8.99,-4.13 13.65,-4.13 11.85,0 26.25,0.85 43.17,2.54 16.09,2.12 30.48,3.17 43.17,3.17l5.08 0 5.08 0c13.12,0 19.69,5.08 19.69,15.24 0,5.08 -2.12,9.21 -6.35,12.39 -4.24,3.17 -9.11,4.76 -14.61,4.76 -3.81,0 -9.31,-0.64 -16.51,-1.91l-12.7 -2.54 -0.63 3.18 -0.64 3.17c0,37.68 3.6,97.78 10.8,180.32 6.77,77.46 10.16,137.57 10.16,180.32 0,5.08 -2.23,9.53 -6.67,13.34 -4.45,3.81 -9.42,5.71 -14.92,5.71l-11.43 -8.25 0.01 0zm238.09 20.96c-9.31,0 -17.78,-10.16 -25.4,-30.49 -8.89,-22.01 -15.45,-44.65 -19.68,-67.93l-4.45 -21.59c-12.28,-60.53 -20.11,-95.03 -23.49,-103.5l-7.62 0c0,12.28 -0.22,23.5 -0.64,33.66l0 34.92c0,56.72 4.02,100.96 12.07,132.7l-6.99 17.15 -17.78 0 -8.25 -9.53 0.63 -42.54c0,-38.1 -1.9,-95.87 -5.71,-173.33 -3.39,-82.54 -5.08,-140.32 -5.08,-173.34 0,-20.32 6.98,-30.48 20.95,-30.48 22.86,0 41.58,5.93 56.19,17.78 14.6,11.86 21.91,28.37 21.91,49.52l0 44.44c0,6.35 -1.06,13.66 -3.18,21.91 -2.12,8.26 -4.44,14.92 -6.98,20l-12.07 22.86 -10.16 19.05 3.18 15.24 8.89 45.08c5.92,32.6 11.64,59.04 17.14,79.36 5.5,20.32 12.28,38.74 20.32,55.24l3.81 7.62c4.23,8.47 6.35,15.24 6.35,20.32 0,4.23 -1.27,7.94 -3.81,11.11 -2.54,3.18 -5.93,4.77 -10.16,4.77l0.01 0zm-78.09 -254.61c9.31,-4.66 17.25,-17.46 23.81,-38.42 6.56,-20.95 9.84,-40.31 9.84,-58.09 0,-13.55 -1.69,-26.25 -5.08,-38.1 -2.12,-6.77 -5.61,-11.96 -10.48,-15.56 -4.87,-3.6 -10.9,-5.4 -18.09,-5.4l-1.27 3.18 -1.27 5.71 1.27 74.92c0.84,22.02 1.27,45.93 1.27,71.75l0 0.01zm183.5 252.07c-5.51,0 -10.48,-1.91 -14.93,-5.72 -4.44,-3.81 -6.88,-8.47 -7.3,-13.97l0 -16.51 0 -12.7c-0.42,-3.81 -0.63,-8.26 -0.63,-13.34 0,-8.89 -0.64,-22.43 -1.91,-40.63l-1.27 -40.63c0,-20.74 0.64,-51.63 1.91,-92.7 1.69,-36.83 2.54,-67.72 2.54,-92.7 0,-5.92 -0.64,-14.81 -1.91,-26.67 -1.27,-12.27 -1.9,-21.16 -1.9,-26.67 0,-30.05 8.89,-45.07 26.67,-45.07 13.97,0 30.16,2.75 48.56,8.25 18.42,5.51 27.63,12.07 27.63,19.69 0,4.23 -1.8,8.15 -5.4,11.75 -3.6,3.6 -7.94,6.45 -13.02,8.57 -17.78,-6.35 -33.87,-10.58 -48.25,-12.7 0.42,6.35 0.64,15.45 0.64,27.3 0,16.94 -0.22,32.18 -0.64,45.71 -1.27,20.32 -1.9,35.56 -1.9,45.71l1.9 10.16 10.16 -0.63c3.39,-0.42 7.62,-0.64 12.7,-0.64 20.32,0 30.48,5.93 30.48,17.78 0,4.66 -1.9,8.58 -5.71,11.75 -3.81,3.18 -8.68,4.76 -14.61,4.76 -7.62,0 -13.55,-0.42 -17.78,-1.27l-15.87 0c0.84,11.01 1.27,27.1 1.27,48.25 0,21.17 -0.22,40.21 -0.64,57.14 -1.27,25.83 -1.9,45.08 -1.9,57.78 0,23.71 0.42,35.56 1.27,35.56l20.95 -0.64c7.2,-0.42 15.88,-0.63 26.04,-0.63 16.08,0 24.13,5.08 24.13,15.24 0,5.93 -2.65,10.48 -7.94,13.65 -5.29,3.18 -11.75,4.77 -19.37,4.77l-53.96 0 -0.01 0zm406.98 24.76c-13.12,0 -19.68,-13.12 -19.68,-39.37l0 -40.63 0 -40.63c0,-21.17 -1.49,-48.89 -4.45,-83.18 -3.39,-38.52 -5.08,-64.97 -5.08,-79.36l1.27 -39.37c0.85,-11.43 1.27,-24.34 1.27,-38.74 -1.69,5.51 -8.68,34.72 -20.95,87.62 -12.28,51.22 -24.98,98.63 -38.1,142.22 -12.7,41.9 -23.08,62.86 -31.12,62.86 -8.04,0 -14.5,-2.43 -19.37,-7.3 -4.87,-4.87 -7.3,-11.54 -7.3,-20.01 0,-18.62 -7.51,-58.19 -22.54,-118.72 -15.03,-60.53 -28.68,-110.06 -40.95,-148.57l-3.81 71.74c-3.39,60.53 -5.71,110.91 -6.98,151.11 -0.85,38.95 -1.27,65.61 -1.27,80 0,3.39 0.21,6.57 0.63,9.53l0 8.89c0,7.2 -1.48,12.59 -4.44,16.19 -2.97,3.6 -8.47,5.4 -16.51,5.4 -4.24,0 -8.26,-1.59 -12.07,-4.76 -3.81,-3.18 -5.71,-6.67 -5.71,-10.48 0,-43.17 3.17,-107.94 9.52,-194.29 6.35,-86.35 9.53,-151.11 9.53,-194.29 -2.54,-3.81 -3.81,-7.83 -3.81,-12.07 0,-5.08 2.43,-8.99 7.3,-11.74 4.87,-2.75 10.69,-4.13 17.46,-4.13 5.5,0 15.66,19.9 30.48,59.68 14.82,39.78 29.63,84.87 44.44,135.23 14.82,50.37 24.34,86.78 28.58,109.21 3.38,-11.43 6.13,-22.01 8.25,-31.75l3.81 -15.24c13.55,-59.25 27.09,-112.8 40.63,-160.63 8.04,-29.21 15.88,-52.06 23.5,-68.57 7.62,-17.78 14.6,-26.67 20.95,-26.67 5.93,0 11.32,1.59 16.19,4.76 4.87,3.18 7.31,7.3 7.31,12.38 0,30.48 1.27,76.19 3.81,137.14 2.96,56.72 4.44,100.75 4.44,132.06l-0.63 33.66 -1.27 33.65c0,5.08 0.63,12.7 1.9,22.86l1.91 22.23c0.42,3.81 0.74,6.77 0.95,8.89 0.21,2.12 0.32,3.39 0.32,3.81 2.11,5.5 3.17,9.53 3.17,12.07 0,7.19 -2.12,13.54 -6.35,19.05 -4.23,5.5 -9.31,8.25 -15.24,8.25l0.01 0.01zm129.53 -24.76c-5.51,0 -10.48,-1.91 -14.93,-5.72 -4.44,-3.81 -6.88,-8.47 -7.3,-13.97l0 -16.51 0 -12.7c-0.42,-3.81 -0.63,-8.26 -0.63,-13.34 0,-8.89 -0.64,-22.43 -1.91,-40.63l-1.27 -40.63c0,-20.74 0.64,-51.63 1.91,-92.7 1.69,-36.83 2.54,-67.72 2.54,-92.7 0,-5.92 -0.64,-14.81 -1.91,-26.67 -1.27,-12.27 -1.9,-21.16 -1.9,-26.67 0,-30.05 8.89,-45.07 26.67,-45.07 13.97,0 30.16,2.75 48.56,8.25 18.42,5.51 27.63,12.07 27.63,19.69 0,4.23 -1.8,8.15 -5.4,11.75 -3.6,3.6 -7.94,6.45 -13.02,8.57 -17.78,-6.35 -33.87,-10.58 -48.25,-12.7 0.42,6.35 0.64,15.45 0.64,27.3 0,16.94 -0.22,32.18 -0.64,45.71 -1.27,20.32 -1.9,35.56 -1.9,45.71l1.9 10.16 10.16 -0.63c3.39,-0.42 7.62,-0.64 12.7,-0.64 20.32,0 30.48,5.93 30.48,17.78 0,4.66 -1.9,8.58 -5.71,11.75 -3.81,3.18 -8.68,4.76 -14.61,4.76 -7.62,0 -13.55,-0.42 -17.78,-1.27l-15.87 0c0.84,11.01 1.27,27.1 1.27,48.25 0,21.17 -0.22,40.21 -0.64,57.14 -1.27,25.83 -1.9,45.08 -1.9,57.78 0,23.71 0.42,35.56 1.27,35.56l20.95 -0.64c7.2,-0.42 15.88,-0.63 26.04,-0.63 16.08,0 24.13,5.08 24.13,15.24 0,5.93 -2.65,10.48 -7.94,13.65 -5.29,3.18 -11.75,4.77 -19.37,4.77l-53.96 0 -0.01 0z"/>
   <path class="fil0 str0" d="M3405.55 1717.38c-11.85,0 -22.75,-2.75 -32.7,-8.25 -9.95,-5.51 -18.52,-12.92 -25.72,-22.23 -6.35,-8.89 -12.06,-20.21 -17.14,-33.97 -5.08,-13.76 -8.89,-28.05 -11.43,-42.86 -5.08,-24.97 -8.47,-57.77 -10.16,-98.41 -0.43,-9.74 -0.64,-26.46 -0.64,-50.16l0 -39.99c0.42,-11.43 0.64,-23.28 0.64,-35.56 0,-24.98 1.48,-44.65 4.44,-59.05 -1.27,-6.35 -1.9,-12.91 -1.9,-19.68 0,-25.4 9.52,-45.92 28.57,-61.59 19.05,-15.66 43.17,-23.49 72.38,-23.49 11.01,0 21.17,2.96 30.48,8.89 9.31,5.93 13.97,13.33 13.97,22.22 0,4.24 -1.69,7.62 -5.08,10.16 -3.39,2.54 -7.62,3.81 -12.7,3.81 -4.23,0 -8.78,-0.63 -13.65,-1.9 -4.87,-1.27 -7.94,-3.18 -9.21,-5.72l-8.25 0 0 -1.27c-15.67,0 -28.79,3.39 -39.37,10.16 -7.62,5.51 -13.55,14.61 -17.78,27.31 -1.7,4.66 -2.97,10.58 -3.81,17.78 -0.85,7.2 -1.27,13.76 -1.27,19.68 -0.43,3.39 -0.64,10.16 -0.64,20.32l1.27 22.23 0.64 21.59c0,6.35 -0.85,13.76 -2.54,22.22 -2.12,10.59 -3.18,18 -3.18,22.23l0 15.24c0,16.51 0.64,39.16 1.91,67.93 0.42,24.13 3.17,48.25 8.25,72.38 3.81,22.44 11.01,41.48 21.59,57.14 10.16,16.09 23.92,24.13 41.27,24.13 7.19,0 16.08,-3.81 26.67,-11.43 11.43,-7.62 19.47,-11.43 24.13,-11.43 5.92,0 12.06,3.18 18.41,9.53 0,15.66 -5.93,27.73 -17.78,36.19 -11.01,7.63 -24.13,12.49 -39.37,14.61 -8.47,0.85 -15.24,1.27 -20.32,1.27l0.02 -0.03zm224.77 0c-15.24,-5.08 -34.08,-7.62 -56.51,-7.62 -6.77,4.23 -13.97,6.35 -21.59,6.35 -5.08,0 -9.42,-2.22 -13.02,-6.67 -3.6,-4.44 -5.39,-9.21 -5.39,-14.29 0,-35.56 1.48,-82.96 4.44,-142.22 2.54,-63.06 3.81,-110.26 3.81,-141.58l0 -4.45c-2.54,-26.67 -3.81,-46.55 -3.81,-59.68 0,-40.2 7.41,-60.31 22.23,-60.31 4.23,0 7.93,1.59 11.11,4.76 3.17,3.18 4.76,6.88 4.76,11.11 0,5.08 -0.63,13.13 -1.9,24.13 -1.27,10.59 -1.91,18.63 -1.91,24.13 0,28.37 0.21,53.97 0.64,76.83 0.42,22.44 0.63,47.83 0.63,76.19 -2.12,6.35 -3.17,15.24 -3.17,26.67l0 7.62 -1.27 50.15c-0.85,14.82 -1.27,31.75 -1.27,50.79 0,29.21 6.98,43.81 20.95,43.81 0.85,0 2.22,-0.11 4.13,-0.32 1.9,-0.21 4.55,-0.32 7.94,-0.32 3.81,-0.42 8.67,-0.63 14.6,-0.63 22.86,0 34.29,6.35 34.29,19.05 0,4.23 -1.9,7.83 -5.71,10.8 -3.81,2.96 -8.47,4.86 -13.97,5.71l-0.01 -0.01zm104.13 -10.8c-36.83,0 -55.24,-6.35 -55.24,-19.05 0,-10.16 6.56,-15.24 19.69,-15.24l6.98 0 6.35 0.64c3.39,0 5.72,-1.06 6.99,-3.18 1.27,-2.11 1.9,-5.92 1.9,-11.43 0,-7.19 -0.42,-18.41 -1.27,-33.65 -1.27,-10.16 -2.75,-28.36 -4.44,-54.6 -3.81,-64.76 -5.72,-113.66 -5.72,-146.67 0,-11.85 0.21,-22.64 0.64,-32.38l0.63 -32.39c0,-13.97 -0.63,-25.61 -1.9,-34.92 -6.78,1.69 -11.65,2.54 -14.61,2.54 -10.16,0 -15.24,-5.08 -15.24,-15.24 0,-5.08 3.18,-9.53 9.53,-13.34 6.35,-3.81 14.39,-6.56 24.13,-8.25 16.93,-3.39 31.96,-5.08 45.07,-5.08 5.08,0 9.42,1.8 13.02,5.4 3.6,3.6 5.4,7.72 5.4,12.38 0,4.66 -1.38,8.68 -4.13,12.06 -2.75,3.39 -6.25,5.08 -10.48,5.08 -2.54,0 -4.66,-0.21 -6.35,-0.63l-5.08 0c-4.23,0 -7.3,0.95 -9.21,2.86 -1.9,1.9 -2.85,5.39 -2.85,10.47 0,41.06 2.54,102.86 7.62,185.4 0.84,15.24 2.54,37.68 5.08,67.3 2.11,19.48 3.17,39.37 3.17,59.68l0 24.13c2.54,-0.42 6.77,-0.63 12.7,-0.63 17.78,0 26.67,7.41 26.67,22.22l0 3.81 -15.87 10.8c-0.43,0 -1.8,0.11 -4.13,0.32 -2.33,0.21 -6.67,0.31 -13.02,0.31 -13.55,0.85 -22.22,1.27 -26.03,1.27l0 0.01zm367.61 33.66c-13.12,0 -19.68,-13.12 -19.68,-39.37l0 -40.63 0 -40.63c0,-21.17 -1.49,-48.89 -4.45,-83.18 -3.39,-38.52 -5.08,-64.97 -5.08,-79.36l1.27 -39.37c0.85,-11.43 1.27,-24.34 1.27,-38.74 -1.69,5.51 -8.68,34.72 -20.95,87.62 -12.28,51.22 -24.98,98.63 -38.1,142.22 -12.7,41.9 -23.08,62.86 -31.12,62.86 -8.04,0 -14.5,-2.43 -19.37,-7.3 -4.87,-4.87 -7.3,-11.54 -7.3,-20.01 0,-18.62 -7.51,-58.19 -22.54,-118.72 -15.03,-60.53 -28.68,-110.06 -40.95,-148.57l-3.81 71.74c-3.39,60.53 -5.71,110.91 -6.98,151.11 -0.85,38.95 -1.27,65.61 -1.27,80 0,3.39 0.21,6.57 0.63,9.53l0 8.89c0,7.2 -1.48,12.59 -4.44,16.19 -2.97,3.6 -8.47,5.4 -16.51,5.4 -4.24,0 -8.26,-1.59 -12.07,-4.76 -3.81,-3.18 -5.71,-6.67 -5.71,-10.48 0,-43.17 3.17,-107.94 9.52,-194.29 6.35,-86.35 9.53,-151.11 9.53,-194.29 -2.54,-3.81 -3.81,-7.83 -3.81,-12.07 0,-5.08 2.43,-8.99 7.3,-11.74 4.87,-2.75 10.69,-4.13 17.46,-4.13 5.5,0 15.66,19.9 30.48,59.68 14.82,39.78 29.63,84.87 44.44,135.23 14.82,50.37 24.34,86.78 28.58,109.21 3.38,-11.43 6.13,-22.01 8.25,-31.75l3.81 -15.24c13.55,-59.25 27.09,-112.8 40.63,-160.63 8.04,-29.21 15.88,-52.06 23.5,-68.57 7.62,-17.78 14.6,-26.67 20.95,-26.67 5.93,0 11.32,1.59 16.19,4.76 4.87,3.18 7.31,7.3 7.31,12.38 0,30.48 1.27,76.19 3.81,137.14 2.96,56.72 4.44,100.75 4.44,132.06l-0.63 33.66 -1.27 33.65c0,5.08 0.63,12.7 1.9,22.86l1.91 22.23c0.42,3.81 0.74,6.77 0.95,8.89 0.21,2.12 0.32,3.39 0.32,3.81 2.11,5.5 3.17,9.53 3.17,12.07 0,7.19 -2.12,13.54 -6.35,19.05 -4.23,5.5 -9.31,8.25 -15.24,8.25l0.01 0.01zm118.73 -26.67c-9.31,0 -15.03,-4.02 -17.14,-12.07 -1.7,-5.08 -2.54,-12.27 -2.54,-21.59 0,-18.2 0.84,-40.63 2.54,-67.3 2.11,-25.4 3.17,-48.03 3.17,-67.93 0,-22.44 0.64,-56.08 1.91,-100.96l1.27 -100.32c0,-3.81 -0.64,-9.52 -1.91,-17.14l-1.9 -15.88 0 -3.17c0,-9.74 1.48,-16.93 4.44,-21.59 2.96,-4.66 8.47,-6.99 16.51,-6.99 11.01,0 23.07,3.18 36.2,9.53 13.12,6.35 22.64,14.39 28.57,24.13 12.28,20.32 18.42,45.71 18.42,76.19 0,22.86 -1.91,42.01 -5.72,57.46 -3.81,15.45 -10.37,29.74 -19.68,42.85 11.43,11.01 19.15,25.08 23.17,42.22 4.02,17.14 6.04,38.63 6.04,64.44 0,25.82 -4.45,48.25 -13.34,67.3 -10.16,21.59 -24.98,36.41 -44.44,44.44 -11.85,4.23 -23.71,6.35 -35.56,6.35l-0.01 0.03zm20.32 -243.18c22.01,-0.42 33.02,-26.03 33.02,-76.82 0,-54.6 -8.68,-83.18 -26.03,-85.72 -4.66,9.74 -6.99,32.6 -6.99,68.57l0 93.97zm-3.81 210.79c13.55,-2.96 24.13,-11 31.75,-24.13 7.62,-13.12 11.43,-28.15 11.43,-45.07 0,-17.78 -1.06,-33.44 -3.17,-46.98 -1.7,-10.58 -3.92,-19.37 -6.67,-26.35 -2.75,-6.99 -6.46,-13.44 -11.11,-19.37 -5.08,-6.35 -11.01,-10.16 -17.78,-11.43 -1.7,24.13 -2.54,56.08 -2.54,95.87 0,2.54 -0.43,10.59 -1.27,24.13l-1.27 21.59c0,0.85 0.21,1.49 0.63,1.91l0 1.27 0 28.57 0 -0.01zm177.79 25.4c-36.83,0 -55.24,-6.35 -55.24,-19.05 0,-10.16 6.56,-15.24 19.69,-15.24l6.98 0 6.35 0.64c3.39,0 5.72,-1.06 6.99,-3.18 1.27,-2.11 1.9,-5.92 1.9,-11.43 0,-7.19 -0.42,-18.41 -1.27,-33.65 -1.27,-10.16 -2.75,-28.36 -4.44,-54.6 -3.81,-64.76 -5.72,-113.66 -5.72,-146.67 0,-11.85 0.21,-22.64 0.64,-32.38l0.63 -32.39c0,-13.97 -0.63,-25.61 -1.9,-34.92 -6.78,1.69 -11.65,2.54 -14.61,2.54 -10.16,0 -15.24,-5.08 -15.24,-15.24 0,-5.08 3.18,-9.53 9.53,-13.34 6.35,-3.81 14.39,-6.56 24.13,-8.25 16.93,-3.39 31.96,-5.08 45.07,-5.08 5.08,0 9.42,1.8 13.02,5.4 3.6,3.6 5.4,7.72 5.4,12.38 0,4.66 -1.38,8.68 -4.13,12.06 -2.75,3.39 -6.25,5.08 -10.48,5.08 -2.54,0 -4.66,-0.21 -6.35,-0.63l-5.08 0c-4.23,0 -7.3,0.95 -9.21,2.86 -1.9,1.9 -2.85,5.39 -2.85,10.47 0,41.06 2.54,102.86 7.62,185.4 0.84,15.24 2.54,37.68 5.08,67.3 2.11,19.48 3.17,39.37 3.17,59.68l0 24.13c2.54,-0.42 6.77,-0.63 12.7,-0.63 17.78,0 26.67,7.41 26.67,22.22l0 3.81 -15.87 10.8c-0.43,0 -1.8,0.11 -4.13,0.32 -2.33,0.21 -6.67,0.31 -13.02,0.31 -13.55,0.85 -22.22,1.27 -26.03,1.27l0 0.01zm285.07 2.55c-5.08,0 -8.89,-1.38 -11.43,-4.13 -2.54,-2.75 -4.44,-7.52 -5.71,-14.29l-3.81 -12.07 0 -1.27 0 -1.9c0,-13.97 -14.5,-61.59 -43.49,-142.86 -29,-81.27 -51.74,-141.37 -68.25,-180.32l0 319.37 2.54 4.44c0.42,0.85 1.27,2.33 2.54,4.45 1.27,2.12 1.9,4.23 1.9,6.35 0,5.5 -1.9,10.16 -5.71,13.97 -3.81,3.81 -8.47,5.71 -13.97,5.71 -13.55,0 -20.32,-12.91 -20.32,-38.73l-0.64 -108.58c-0.42,-32.59 -0.63,-68.99 -0.63,-109.21 0,-13.54 0.63,-33.23 1.9,-59.04 1.27,-26.67 1.91,-46.35 1.91,-59.05 0,-19.89 7.62,-35.56 22.86,-46.98l0 3.81c2.54,-0.84 4.23,-1.27 5.08,-1.27 9.73,0 22.01,16.94 36.83,50.79 11.85,27.1 22.54,55.66 32.06,85.72 9.53,30.06 22.12,72.8 37.79,128.25l6.35 22.86c9.73,34.29 17.14,58.83 22.22,73.65 8.47,-91.01 12.7,-198.51 12.7,-322.54l0 -8.26c-0.42,-2.54 -0.63,-5.29 -0.63,-8.25 0,-12.7 5.08,-19.05 15.24,-19.05 5.92,0 10.47,2.33 13.65,6.98 3.17,4.66 4.76,10.59 4.76,17.78l0 47.62c-0.85,65.18 -3.39,135.87 -7.62,212.06 -4.23,76.19 -9.31,119.15 -15.24,128.88 -12.28,3.39 -19.9,5.09 -22.86,5.09l-0.02 0.02zm213.34 3.17c-11.86,0 -22.65,-2.22 -32.39,-6.67 -9.74,-4.44 -17.99,-10.26 -24.76,-17.46 -5.51,-5.93 -10.59,-14.61 -15.24,-26.04 -4.66,-11.43 -8.05,-22.43 -10.16,-33.02 -2.12,-8.04 -3.81,-19.68 -5.08,-34.92 -1.27,-15.24 -2.12,-28.36 -2.54,-39.37l0 -36.83 0 -25.4c0,-24.55 0.42,-44.65 1.27,-60.32 0.84,-19.05 3.59,-39.15 8.25,-60.31 3.81,-19.05 10.37,-35.77 19.69,-50.16 8.89,-14.39 21.37,-24.34 37.46,-29.84 7.62,-2.96 16.51,-4.45 26.67,-4.45 18.2,0 27.31,5.3 27.31,15.88 0,5.08 -2.02,9.21 -6.04,12.38 -4.02,3.18 -8.78,4.76 -14.28,4.76 -2.54,0 -4.87,-0.21 -6.99,-0.63 -1.69,-0.42 -3.81,-0.64 -6.35,-0.64 -7.2,0 -13.55,3.81 -19.05,11.43 -5.5,7.62 -10.16,18.21 -13.97,31.75 -6.77,26.25 -11.43,54.82 -13.97,85.72 -1.69,28.79 -2.54,50.15 -2.54,64.12 0,14.4 0.64,34.08 1.91,59.05 1.69,23.28 5.29,43.59 10.79,60.95 2.96,10.16 6.46,18.31 10.48,24.45 4.02,6.14 9.21,11.32 15.56,15.55 7.19,4.66 14.6,6.99 22.22,6.99 20.32,0 30.48,-33.87 30.48,-101.59l0 -29.21c-2.96,-1.27 -7.83,-1.91 -14.6,-1.91l-5.72 0 -6.98 0c-14.82,0 -22.23,-4.86 -22.23,-14.6 0,-5.93 2.01,-10.48 6.03,-13.65 4.02,-3.18 9.21,-4.77 15.56,-4.77l0 0.64 8.89 0c38.1,0 57.14,6.56 57.14,19.68 0,3.81 -1.06,11.43 -3.17,22.86 -2.54,10.16 -3.81,17.78 -3.81,22.86 0,7.2 0.63,18.42 1.9,33.66l1.27 33.65c0,20.32 -7.09,36.31 -21.27,47.94 -14.18,11.64 -31.43,17.46 -51.74,17.46l0 0.01z"/>
  </g>
 </g>
</svg>
